<?xml version="1.0" encoding="UTF-8" standalone="no"?>
<!-- Created with Inkscape (http://www.inkscape.org/) -->

<svg
   xmlns:dc="http://purl.org/dc/elements/1.1/"
   xmlns:cc="http://creativecommons.org/ns#"
   xmlns:rdf="http://www.w3.org/1999/02/22-rdf-syntax-ns#"
   xmlns:svg="http://www.w3.org/2000/svg"
   xmlns="http://www.w3.org/2000/svg"
   xmlns:sodipodi="http://sodipodi.sourceforge.net/DTD/sodipodi-0.dtd"
   xmlns:inkscape="http://www.inkscape.org/namespaces/inkscape"
   width="730"
   height="119.6619"
   id="svg2"
   version="1.1"
   inkscape:version="0.48.3.1 r9886"
   sodipodi:docname="logow.svg"
   inkscape:export-filename="/home/spencer/Pictures/infamous logo.png"
   inkscape:export-xdpi="90"
   inkscape:export-ydpi="90">
  <defs
     id="defs4">
    <inkscape:path-effect
       is_visible="true"
       id="path-effect3831"
       effect="spiro" />
    <inkscape:path-effect
       effect="spiro"
       id="path-effect3827"
       is_visible="true" />
    <inkscape:path-effect
       is_visible="true"
       id="path-effect3823"
       effect="spiro" />
    <inkscape:path-effect
       effect="spiro"
       id="path-effect3819"
       is_visible="true" />
    <inkscape:path-effect
       is_visible="true"
       id="path-effect3815"
       effect="spiro" />
    <inkscape:path-effect
       effect="spiro"
       id="path-effect3811"
       is_visible="true" />
    <inkscape:path-effect
       effect="spiro"
       id="path-effect3807"
       is_visible="true" />
    <inkscape:path-effect
       is_visible="true"
       id="path-effect3803"
       effect="spiro" />
    <inkscape:path-effect
       effect="spiro"
       id="path-effect3787"
       is_visible="true" />
    <inkscape:path-effect
       effect="spiro"
       id="path-effect3779"
       is_visible="true" />
    <inkscape:path-effect
       effect="spiro"
       id="path-effect3775"
       is_visible="true" />
    <inkscape:path-effect
       effect="spiro"
       id="path-effect3771"
       is_visible="true" />
    <inkscape:path-effect
       effect="spiro"
       id="path-effect3767"
       is_visible="true" />
    <inkscape:path-effect
       effect="spiro"
       id="path-effect3767-2"
       is_visible="true" />
    <inkscape:path-effect
       is_visible="true"
       id="path-effect3803-5"
       effect="spiro" />
    <inkscape:path-effect
       effect="spiro"
       id="path-effect3807-7"
       is_visible="true" />
    <inkscape:path-effect
       effect="spiro"
       id="path-effect3811-0"
       is_visible="true" />
    <inkscape:path-effect
       is_visible="true"
       id="path-effect3815-7"
       effect="spiro" />
    <inkscape:path-effect
       effect="spiro"
       id="path-effect3819-6"
       is_visible="true" />
    <inkscape:path-effect
       is_visible="true"
       id="path-effect3823-0"
       effect="spiro" />
    <inkscape:path-effect
       effect="spiro"
       id="path-effect3827-4"
       is_visible="true" />
    <inkscape:path-effect
       is_visible="true"
       id="path-effect3831-7"
       effect="spiro" />
    <inkscape:path-effect
       effect="spiro"
       id="path-effect3779-3"
       is_visible="true" />
    <inkscape:path-effect
       effect="spiro"
       id="path-effect3771-7"
       is_visible="true" />
    <inkscape:path-effect
       effect="spiro"
       id="path-effect3771-7-5"
       is_visible="true" />
    <inkscape:path-effect
       effect="spiro"
       id="path-effect3767-2-9"
       is_visible="true" />
    <inkscape:path-effect
       effect="spiro"
       id="path-effect3779-3-3"
       is_visible="true" />
    <inkscape:path-effect
       is_visible="true"
       id="path-effect3803-5-4"
       effect="spiro" />
    <inkscape:path-effect
       effect="spiro"
       id="path-effect3807-7-7"
       is_visible="true" />
    <inkscape:path-effect
       effect="spiro"
       id="path-effect3811-0-6"
       is_visible="true" />
    <inkscape:path-effect
       is_visible="true"
       id="path-effect3815-7-8"
       effect="spiro" />
    <inkscape:path-effect
       effect="spiro"
       id="path-effect3819-6-4"
       is_visible="true" />
    <inkscape:path-effect
       is_visible="true"
       id="path-effect3823-0-6"
       effect="spiro" />
    <inkscape:path-effect
       effect="spiro"
       id="path-effect3827-4-6"
       is_visible="true" />
    <inkscape:path-effect
       is_visible="true"
       id="path-effect3831-7-6"
       effect="spiro" />
    <inkscape:path-effect
       effect="spiro"
       id="path-effect3771-7-5-1"
       is_visible="true" />
    <inkscape:path-effect
       effect="spiro"
       id="path-effect3767-2-9-3"
       is_visible="true" />
    <inkscape:path-effect
       effect="spiro"
       id="path-effect3779-3-3-6"
       is_visible="true" />
    <inkscape:path-effect
       is_visible="true"
       id="path-effect3803-5-4-1"
       effect="spiro" />
    <inkscape:path-effect
       effect="spiro"
       id="path-effect3807-7-7-7"
       is_visible="true" />
    <inkscape:path-effect
       effect="spiro"
       id="path-effect3811-0-6-5"
       is_visible="true" />
    <inkscape:path-effect
       is_visible="true"
       id="path-effect3815-7-8-4"
       effect="spiro" />
    <inkscape:path-effect
       effect="spiro"
       id="path-effect3819-6-4-6"
       is_visible="true" />
    <inkscape:path-effect
       is_visible="true"
       id="path-effect3823-0-6-7"
       effect="spiro" />
    <inkscape:path-effect
       effect="spiro"
       id="path-effect3827-4-6-3"
       is_visible="true" />
    <inkscape:path-effect
       is_visible="true"
       id="path-effect3831-7-6-9"
       effect="spiro" />
  </defs>
  <sodipodi:namedview
     id="base"
     pagecolor="#ffffff"
     bordercolor="#666666"
     borderopacity="1.0"
     inkscape:pageopacity="0.0"
     inkscape:pageshadow="2"
     inkscape:zoom="5.6"
     inkscape:cx="44.949203"
     inkscape:cy="72.06006"
     inkscape:document-units="px"
     inkscape:current-layer="layer1"
     showgrid="false"
     inkscape:window-width="716"
     inkscape:window-height="757"
     inkscape:window-x="720"
     inkscape:window-y="18"
     inkscape:window-maximized="0"
     fit-margin-top="0"
     fit-margin-left="0"
     fit-margin-right="0"
     fit-margin-bottom="0" />
  <metadata
     id="metadata7">
    <rdf:RDF>
      <cc:Work
         rdf:about="">
        <dc:format>image/svg+xml</dc:format>
        <dc:type
           rdf:resource="http://purl.org/dc/dcmitype/StillImage" />
        <dc:title />
      </cc:Work>
    </rdf:RDF>
  </metadata>
  <g
     inkscape:label="Layer 1"
     inkscape:groupmode="layer"
     id="layer1"
     transform="translate(-552.17177,-646.02273)">
    <flowRoot
       xml:space="preserve"
       id="flowRoot2985"
       style="font-size:32px;font-style:normal;font-weight:normal;line-height:125%;letter-spacing:0px;word-spacing:0px;fill:#000000;fill-opacity:1;stroke:none;font-family:Sans"><flowRegion
         id="flowRegion2987"><rect
           id="rect2989"
           width="185.71428"
           height="97.14286"
           x="217.14285"
           y="509.50504"
           style="font-size:32px" /></flowRegion><flowPara
         id="flowPara2991" /></flowRoot>    <g
       transform="matrix(0.90014896,0,0,0.90014896,115.96695,383.46024)"
       style="font-size:144px;font-style:normal;font-variant:normal;font-weight:bold;font-stretch:normal;line-height:125%;letter-spacing:0px;word-spacing:0px;fill:#cccccc;fill-opacity:1;stroke:none;font-family:American Participants;-inkscape-font-specification:American Participants Bold"
       id="text3070-7">
      <path
         d="m 520.06567,333.32749 c -6.24002,-1.05592 -9.36002,-5.13591 -9.36,-12.24 -2e-5,-3.9359 1.15198,-7.2959 3.456,-10.08 2.59198,-3.16789 5.95197,-4.75189 10.08,-4.752 l 2.176,0 c 3.74394,1.1e-4 6.71994,1.29611 8.928,3.888 1.91994,2.3041 2.87993,5.1841 2.88,8.64 -7e-5,3.74409 -1.05606,7.05609 -3.168,9.936 -2.40006,3.07208 -5.52006,4.70408 -9.36,4.896 m -2.88,-23.76 -2.176,0 c -1.92003,1.1e-4 -3.45602,0.7681 -4.608,2.304 -1.15202,1.5361 -1.72802,3.2641 -1.728,5.184 -2e-5,3.64809 1.58398,5.47209 4.752,5.472 l 5.472,0 -8.912,0 5.616,0 c 1.91995,9e-5 3.45595,-0.76791 4.608,-2.304 1.15195,-1.5359 1.72794,-3.2639 1.728,-5.184 -6e-5,-3.6479 -1.58405,-5.47189 -4.752,-5.472"
         style="font-weight:normal;fill:#cccccc;font-family:Webster World;-inkscape-font-specification:Webster World"
         id="path4127-5"
         inkscape:connector-curvature="0"
         sodipodi:nodetypes="cscccccccccccccccccc" />
      <path
         d="m 651.92917,306.25549 c 3.83989,1.1e-4 6.76789,1.24811 8.784,3.744 2.11189,2.4001 3.16788,5.3761 3.168,8.928 -1.2e-4,3.84009 -1.15211,7.15209 -3.456,9.936 -2.59211,3.16808 -5.95211,4.75208 -10.08,4.752 l -4.608,0 -4.608,37.872 c 5.3759,1.15204 8.4959,5.32804 9.36,12.528 1.7279,13.05602 2.59189,20.35201 2.592,21.888 -1.1e-4,12.288 -4.5601,18.43199 -13.68,18.432 l -27.648,0 c -5.28006,-10e-6 -8.83205,-2.40001 -10.656,-7.2 -2.59205,4.79999 -6.43205,7.19999 -11.52,7.2 l -27.792,0 c -7.77601,-10e-6 -11.664,-3.936 -11.664,-11.808 0,-4.22399 1.2,-9.69599 3.6,-16.416 1.72799,-4.60798 3.45599,-9.16797 5.184,-13.68 2.59199,-6.91196 6.67198,-10.65596 12.24,-11.232 l 4.608,-37.584 -3.024,0 c -3.74402,8e-5 -6.72002,-1.29592 -8.928,-3.888 -1.92001,-2.30391 -2.88001,-5.23191 -2.88,-8.784 -10e-6,-3.8399 1.15199,-7.1519 3.456,-9.936 2.49598,-3.16789 5.80798,-4.75189 9.936,-4.752 l 27.792,0 c 5.18394,1.1e-4 8.73594,2.25611 10.656,6.768 2.49593,-4.51189 6.33593,-6.76789 11.52,-6.768 l 27.648,0 m -31.824,27.072 c -3.93607,-0.67192 -6.67207,-2.83192 -8.208,-6.48 -1.34406,2.40009 -3.16806,4.22408 -5.472,5.472 l 11.232,21.456 2.448,-20.448 m 28.224,-23.472 -27.648,0 c -1.92007,1.1e-4 -3.45607,0.7681 -4.608,2.304 -1.15207,1.5361 -1.72807,3.2641 -1.728,5.184 -7e-5,3.64809 1.58393,5.47209 4.752,5.472 l 5.472,0 -6.192,51.264 -26.784,-51.264 5.328,0 c 1.91995,9e-5 3.45595,-0.76791 4.608,-2.304 1.15195,-1.5359 1.72794,-3.2639 1.728,-5.184 -6e-5,-3.6479 -1.58405,-5.47189 -4.752,-5.472 l -27.792,0 c -1.92002,1.1e-4 -3.45602,0.7681 -4.608,2.304 -1.15202,1.5361 -1.72802,3.2641 -1.728,5.184 -2e-5,3.64809 1.58398,5.47209 4.752,5.472 l 11.088,0 -6.192,51.84 c -4.12802,4e-5 -6.67202,0.19204 -7.632,0.576 -1.72802,0.67204 -3.12002,2.64004 -4.176,5.904 l -8.784,25.92 c -0.096,0.48001 -0.14401,1.00801 -0.144,1.584 -10e-6,1.34401 0.47999,2.496 1.44,3.456 0.95999,0.96 2.11199,1.44 3.456,1.44 l 27.792,0 c 1.63196,0 3.02396,-0.672 4.176,-2.016 1.24796,-1.34399 1.96796,-2.83199 2.16,-4.464 l 3.168,-25.92 c 0.19195,-1.63196 -0.14405,-3.11996 -1.008,-4.464 -0.86405,-1.34396 -2.16004,-2.01596 -3.888,-2.016 l -5.472,0 3.744,-30.672 18.288,34.992 c -0.28806,0.67204 -0.48006,1.39204 -0.576,2.16 l -3.168,25.92 c -0.19206,1.63201 0.14394,3.12001 1.008,4.464 0.86394,1.344 2.11194,2.016 3.744,2.016 l 27.648,0 c 1.72791,0 3.26391,-0.672 4.608,-2.016 1.34391,-1.34399 1.91991,-2.83199 1.728,-4.464 l -2.304,-25.92 c -0.38409,-3.35996 -1.44009,-5.37596 -3.168,-6.048 -0.67209,-0.28796 -3.07209,-0.43196 -7.2,-0.432 l 6.192,-51.84 11.088,0 c 1.9199,9e-5 3.4559,-0.76791 4.608,-2.304 1.1519,-1.5359 1.72789,-3.2639 1.728,-5.184 -1.1e-4,-3.6479 -1.5841,-5.47189 -4.752,-5.472"
         style="font-weight:normal;fill:#cccccc;font-family:Webster World;-inkscape-font-specification:Webster World"
         id="path4129-9"
         inkscape:connector-curvature="0" />
      <path
         d="m 751.77292,306.25549 c 3.83989,1.1e-4 6.76789,1.24811 8.784,3.744 2.11189,2.4001 3.16788,5.3281 3.168,8.784 -1.2e-4,3.93609 -1.15211,7.29609 -3.456,10.08 -2.59211,3.16808 -5.95211,4.75208 -10.08,4.752 l -48.96,0 -1.44,11.52 41.76,0 c 3.8399,7e-5 6.7679,1.24807 8.784,3.744 2.1119,2.40006 3.16789,5.37606 3.168,8.928 -1.1e-4,3.84005 -1.1521,7.15205 -3.456,9.936 -2.5921,3.16804 -5.9521,4.75204 -10.08,4.752 l -40.032,0 c 4.22394,2.40004 6.33594,7.58404 6.336,15.552 -6e-5,3.74402 -1.10406,11.56802 -3.312,23.472 -0.76805,3.648 -2.25605,6.624 -4.464,8.928 -2.40005,2.59199 -5.42405,3.88799 -9.072,3.888 l -27.792,0 c -7.68001,-10e-6 -11.52,-3.936 -11.52,-11.808 0,-4.31999 1.152,-9.83999 3.456,-16.56 1.72799,-4.51198 3.45599,-9.02397 5.184,-13.536 2.30399,-6.04796 5.61598,-9.64796 9.936,-10.8 -4.70402,-1.91995 -7.05601,-5.85595 -7.056,-11.808 -10e-6,-3.74394 1.10399,-7.05594 3.312,-9.936 2.30398,-2.97593 5.37598,-4.55993 9.216,-4.752 l 1.44,-11.52 -3.024,0 c -3.74402,8e-5 -6.72002,-1.29592 -8.928,-3.888 -1.92001,-2.30391 -2.88001,-5.23191 -2.88,-8.784 -10e-6,-3.8399 1.15199,-7.1519 3.456,-9.936 2.49598,-3.16789 5.80798,-4.75189 9.936,-4.752 l 77.616,0 m -3.6,3.6 -77.616,0 c -1.92002,1.1e-4 -3.45602,0.7681 -4.608,2.304 -1.15202,1.5361 -1.72802,3.2641 -1.728,5.184 -2e-5,3.64809 1.58398,5.47209 4.752,5.472 l 11.088,0 -3.024,25.92 -5.616,0 c -1.92002,7e-5 -3.45602,0.76807 -4.608,2.304 -1.15202,1.53606 -1.72802,3.26406 -1.728,5.184 -2e-5,3.64806 1.58398,5.47205 4.752,5.472 l 5.616,0 -1.584,12.96 c -4.12802,4e-5 -6.67202,0.19204 -7.632,0.576 -1.72802,0.67204 -3.12002,2.64004 -4.176,5.904 l -8.784,25.92 c -0.096,0.48001 -0.14401,1.00801 -0.144,1.584 -10e-6,1.34401 0.47999,2.496 1.44,3.456 0.95999,0.96 2.11199,1.44 3.456,1.44 l 27.792,0 c 1.63196,0 3.02396,-0.672 4.176,-2.016 1.24796,-1.34399 1.96796,-2.83199 2.16,-4.464 l 3.168,-25.92 c 0.19195,-1.63196 -0.14405,-3.11996 -1.008,-4.464 -0.86405,-1.34396 -2.16004,-2.01596 -3.888,-2.016 l -5.472,0 1.584,-12.96 49.824,0 c 1.91991,5e-5 3.45591,-0.76795 4.608,-2.304 1.15191,-1.53594 1.72791,-3.26394 1.728,-5.184 -9e-5,-3.64794 -1.58409,-5.47193 -4.752,-5.472 l -49.824,0 3.024,-25.92 55.44,0 c 1.9199,9e-5 3.4559,-0.76791 4.608,-2.304 1.1519,-1.5359 1.72789,-3.2639 1.728,-5.184 -1.1e-4,-3.6479 -1.5841,-5.47189 -4.752,-5.472"
         style="font-weight:normal;fill:#cccccc;font-family:Webster World;-inkscape-font-specification:Webster World"
         id="path4131-6"
         inkscape:connector-curvature="0" />
      <path
         d="m 846.38317,384.01549 c 1.6319,11.61602 2.44789,18.86401 2.448,21.744 -1.1e-4,12.384 -4.5121,18.57599 -13.536,18.576 l -27.648,0 c -5.37606,-10e-6 -8.92805,-2.40001 -10.656,-7.2 -2.59205,4.79999 -6.43205,7.19999 -11.52,7.2 l -27.792,0 c -7.77601,-10e-6 -11.664,-3.936 -11.664,-11.808 0,-4.31999 1.152,-9.83999 3.456,-16.56 1.82399,-4.51198 3.59999,-9.02397 5.328,-13.536 2.68799,-6.91196 6.76798,-10.65596 12.24,-11.232 0.38398,-2.68795 0.91198,-9.83995 1.584,-21.456 0.76797,-12.19192 1.82397,-20.83191 3.168,-25.92 2.87997,-11.7119 7.87196,-17.56789 14.976,-17.568 l 44.352,0 c 8.1599,1.1e-4 12.2399,5.9521 12.24,17.856 -10e-5,5.56809 -1.0081,14.35208 -3.024,26.352 -0.8641,4.70406 -1.96809,11.71205 -3.312,21.024 5.1839,1.15204 8.3039,5.32804 9.36,12.528 m -8.352,23.04 -2.448,-25.92 c -0.28809,-3.35996 -1.29609,-5.37596 -3.024,-6.048 -0.76809,-0.28796 -3.16809,-0.43196 -7.2,-0.432 l 6.912,-58.32 c 0.19191,-1.6319 -0.14409,-3.1199 -1.008,-4.464 -0.86409,-1.3439 -2.11209,-2.01589 -3.744,-2.016 l -44.352,0 c -1.63204,1.1e-4 -3.02404,0.6721 -4.176,2.016 -1.15203,1.3441 -1.87203,2.8321 -2.16,4.464 l -6.912,58.32 c -4.12802,4e-5 -6.67202,0.19204 -7.632,0.576 -1.72802,0.67204 -3.16802,2.64004 -4.32,5.904 l -8.64,25.92 c -0.19201,0.48001 -0.28801,1.00801 -0.288,1.584 -10e-6,1.34401 0.47999,2.496 1.44,3.456 1.05599,0.96 2.25599,1.44 3.6,1.44 l 27.792,0 c 1.63196,0 3.02396,-0.672 4.176,-2.016 1.24796,-1.34399 1.96796,-2.83199 2.16,-4.464 l 3.024,-25.92 c 0.19195,-1.63196 -0.14405,-3.11996 -1.008,-4.464 -0.86405,-1.34396 -2.11204,-2.01596 -3.744,-2.016 l -5.472,0 1.584,-12.96 33.264,0 -1.584,12.96 -5.616,0 c -1.63206,4e-5 -3.07206,0.67204 -4.32,2.016 -1.15206,1.34404 -1.82406,2.83204 -2.016,4.464 l -3.024,25.92 c -0.19206,1.63201 0.14394,3.12001 1.008,4.464 0.86394,1.344 2.11194,2.016 3.744,2.016 l 27.648,0 c 1.63191,0 3.11991,-0.672 4.464,-2.016 1.43991,-1.34399 2.06391,-2.83199 1.872,-4.464 m -31.68,-34.56 -10.368,0 c 2.11195,1.15204 3.69594,3.07204 4.752,5.76 1.43994,-2.59196 3.31194,-4.51196 5.616,-5.76 m 14.112,-49.68 -3.168,25.92 -33.264,0 3.168,-25.92 33.264,0 m -4.464,10.8 -18.864,0 -1.296,11.52 18.72,0 1.44,-11.52"
         style="font-weight:normal;fill:#cccccc;font-family:Webster World;-inkscape-font-specification:Webster World"
         id="path4133-5"
         inkscape:connector-curvature="0" />
      <path
         d="m 984.24292,306.25549 c 3.83986,1.1e-4 6.76785,1.24811 8.784,3.744 2.11185,2.4001 3.16785,5.3281 3.168,8.784 -1.5e-4,3.93609 -1.15215,7.29609 -3.456,10.08 -2.59215,3.16808 -5.95214,4.75208 -10.08,4.752 l -4.608,0 -4.608,37.872 c 5.27986,1.15204 8.39986,5.32804 9.36,12.528 1.72786,12.67202 2.59186,19.96801 2.592,21.888 -1.4e-4,12.288 -4.56014,18.43199 -13.68,18.432 l -27.648,0 c -8.06409,-10e-6 -12.09609,-5.664 -12.096,-16.992 l -4.608,8.064 c -1.82408,3.072 -4.32008,5.47199 -7.488,7.2 -2.30407,1.34399 -4.41607,2.01599 -6.336,2.016 -4.89607,-1e-5 -8.54406,-3.50401 -10.944,-10.512 -6e-5,0 -0.96006,-2.832 -2.88,-8.496 -0.38406,1.92001 -0.72006,3.88801 -1.008,5.904 -0.67205,3.648 -2.16005,6.624 -4.464,8.928 -2.49605,2.59199 -5.52005,3.88799 -9.072,3.888 l -27.792,0 c -7.77601,-10e-6 -11.664,-3.936 -11.664,-11.808 0,-4.22399 1.2,-9.69599 3.6,-16.416 1.72799,-4.60798 3.45599,-9.16797 5.184,-13.68 2.59199,-6.91196 6.67198,-10.65596 12.24,-11.232 l 4.608,-37.584 -3.024,0 c -3.74402,8e-5 -6.72002,-1.29592 -8.928,-3.888 -1.92001,-2.30391 -2.88001,-5.18391 -2.88,-8.64 -10e-6,-3.9359 1.15199,-7.2959 3.456,-10.08 2.49598,-3.16789 5.80798,-4.75189 9.936,-4.752 l 27.792,0 c 3.74394,1.1e-4 6.71994,1.29611 8.928,3.888 1.91994,2.3041 2.87993,5.2321 2.88,8.784 -7e-5,5.85609 -2.30406,10.17609 -6.912,12.96 l 16.128,47.808 28.224,-48.96 c -2.6881,-2.49591 -4.0321,-5.71191 -4.032,-9.648 -1e-4,-3.8399 1.2959,-7.2479 3.888,-10.224 2.59189,-3.07189 5.85589,-4.60789 9.792,-4.608 l 27.648,0 m -3.6,3.6 -27.648,0 c -1.92011,1.1e-4 -3.45611,0.7681 -4.608,2.304 -1.1521,1.5361 -1.7281,3.2641 -1.728,5.184 -10e-5,3.64809 1.5839,5.47209 4.752,5.472 l 2.736,0 -40.752,70.704 -23.76,-70.704 2.88,0 c 1.91995,9e-5 3.45595,-0.76791 4.608,-2.304 1.15195,-1.5359 1.72794,-3.2639 1.728,-5.184 -6e-5,-3.6479 -1.58405,-5.47189 -4.752,-5.472 l -27.792,0 c -1.92002,1.1e-4 -3.45602,0.7681 -4.608,2.304 -1.15202,1.5361 -1.72802,3.2641 -1.728,5.184 -2e-5,3.64809 1.58398,5.47209 4.752,5.472 l 11.088,0 -6.192,51.84 c -4.12802,4e-5 -6.67202,0.19204 -7.632,0.576 -1.72802,0.67204 -3.12002,2.64004 -4.176,5.904 l -8.784,25.92 c -0.096,0.48001 -0.14401,1.00801 -0.144,1.584 -10e-6,1.34401 0.47999,2.496 1.44,3.456 0.95999,0.96 2.11199,1.44 3.456,1.44 l 27.792,0 c 1.63196,0 3.02396,-0.672 4.176,-2.016 1.24796,-1.34399 1.96796,-2.83199 2.16,-4.464 l 3.168,-25.92 c 0.19195,-1.63196 -0.14405,-3.11996 -1.008,-4.464 -0.86405,-1.34396 -2.16004,-2.01596 -3.888,-2.016 l -5.472,0 3.6,-30.384 21.6,64.08 c 1.15194,3.456 2.83193,5.184 5.04,5.184 2.30393,0 4.46393,-1.728 6.48,-5.184 l 36.864,-64.08 -3.6,30.384 -5.616,0 c -1.6321,4e-5 -3.0241,0.67204 -4.176,2.016 -1.1521,1.34404 -1.8241,2.83204 -2.016,4.464 l -3.168,25.92 c -0.19209,1.63201 0.14391,3.12001 1.008,4.464 0.86391,1.344 2.1119,2.016 3.744,2.016 l 27.648,0 c 1.72787,0 3.26387,-0.672 4.608,-2.016 1.34387,-1.34399 1.91987,-2.83199 1.728,-4.464 l -2.304,-25.92 c -0.38413,-3.35996 -1.44013,-5.37596 -3.168,-6.048 -0.67212,-0.28796 -3.07212,-0.43196 -7.2,-0.432 l 6.192,-51.84 11.088,0 c 1.91986,9e-5 3.45586,-0.76791 4.608,-2.304 1.15186,-1.5359 1.72786,-3.2639 1.728,-5.184 -1.4e-4,-3.6479 -1.58414,-5.47189 -4.752,-5.472"
         style="font-weight:normal;fill:#cccccc;font-family:Webster World;-inkscape-font-specification:Webster World"
         id="path4135-5"
         inkscape:connector-curvature="0" />
      <path
         d="m 1082.4892,384.01549 c 1.7279,10.94402 2.5919,18.09601 2.592,21.456 -10e-5,12.576 -4.5601,18.86399 -13.68,18.864 l -77.61603,0 c -7.68001,-10e-6 -11.52,-3.984 -11.52,-11.952 0,-5.56799 2.87999,-15.55198 8.64,-29.952 1.43999,-3.55196 2.87999,-6.09596 4.32,-7.632 2.01598,-2.01596 4.65598,-3.21596 7.92003,-3.6 0.3839,-2.97595 0.9119,-9.64795 1.584,-20.016 0.7679,-12.76792 1.7759,-21.69591 3.024,-26.784 2.8799,-12.0959 7.9679,-18.14389 15.264,-18.144 l 44.352,0 c 8.0639,1.1e-4 12.0959,5.9521 12.096,17.856 -1e-4,5.47209 -0.9601,14.01608 -2.88,25.632 -0.8641,4.80006 -2.0161,12.04805 -3.456,21.744 5.1839,1.15204 8.3039,5.32804 9.36,12.528 m -8.352,23.04 -2.304,-25.92 c -0.3841,-3.35996 -1.4401,-5.37596 -3.168,-6.048 -0.6721,-0.28796 -3.0721,-0.43196 -7.2,-0.432 l 7.056,-58.32 c 0.1919,-1.6319 -0.1441,-3.1199 -1.008,-4.464 -0.8641,-1.3439 -2.1121,-2.01589 -3.744,-2.016 l -44.352,0 c -1.6321,1.1e-4 -3.0721,0.6721 -4.32,2.016 -1.1521,1.3441 -1.8241,2.8321 -2.016,4.464 l -7.056,58.32 c -4.1281,4e-5 -6.67205,0.19204 -7.63203,0.576 -1.72802,0.67204 -3.12002,2.64004 -4.176,5.904 l -8.784,25.92 c -0.096,0.48001 -0.14401,1.00801 -0.144,1.584 -10e-6,1.34401 0.47999,2.496 1.44,3.456 0.95999,0.96 2.11199,1.44 3.456,1.44 l 77.61603,0 c 1.7279,0 3.2639,-0.672 4.608,-2.016 1.3439,-1.34399 1.9199,-2.83199 1.728,-4.464 m -17.568,-84.24 -6.192,51.84 -33.264,0 6.192,-51.84 33.264,0 m -4.464,10.8 -18.72,0 -4.608,37.44 18.864,0 4.464,-37.44"
         style="font-weight:normal;fill:#cccccc;font-family:Webster World;-inkscape-font-specification:Webster World"
         id="path4137-6"
         inkscape:connector-curvature="0" />
      <path
         d="m 1183.7729,306.25549 c 3.8399,1.1e-4 6.7679,1.24811 8.784,3.744 2.1119,2.4001 3.1679,5.3761 3.168,8.928 -10e-5,3.84009 -1.1521,7.15209 -3.456,9.936 -2.5921,3.16808 -5.9521,4.75208 -10.08,4.752 l -4.608,0 -4.608,37.872 c 5.2799,1.15204 8.3999,5.32804 9.36,12.528 1.7279,12.67202 2.5919,19.96801 2.592,21.888 -10e-5,12.288 -4.5601,18.43199 -13.68,18.432 l -77.616,0 c -7.68,-10e-6 -11.52,-3.936 -11.52,-11.808 0,-4.22399 1.152,-9.69599 3.456,-16.416 1.728,-4.60798 3.456,-9.16797 5.184,-13.68 2.592,-6.91196 6.672,-10.65596 12.24,-11.232 l 4.608,-37.584 -3.024,0 c -3.744,8e-5 -6.72,-1.29592 -8.928,-3.888 -1.92,-2.30391 -2.88,-5.23191 -2.88,-8.784 0,-3.8399 1.152,-7.1519 3.456,-9.936 2.496,-3.16789 5.808,-4.75189 9.936,-4.752 l 27.792,0 c 5.184,1.1e-4 8.736,2.25611 10.656,6.768 2.496,-4.51189 6.3359,-6.76789 11.52,-6.768 l 27.648,0 m -31.824,27.072 c -3.936,-0.67192 -6.672,-2.83192 -8.208,-6.48 -2.304,4.22408 -5.808,6.48008 -10.512,6.768 l -4.608,37.44 18.864,0 4.464,-37.728 m 28.224,-23.472 -27.648,0 c -1.9201,1.1e-4 -3.456,0.7681 -4.608,2.304 -1.152,1.5361 -1.728,3.2641 -1.728,5.184 0,3.64809 1.584,5.47209 4.752,5.472 l 5.472,0 -6.192,51.84 -33.264,0 6.192,-51.84 5.616,0 c 1.92,9e-5 3.456,-0.76791 4.608,-2.304 1.152,-1.5359 1.728,-3.2639 1.728,-5.184 0,-3.6479 -1.584,-5.47189 -4.752,-5.472 l -27.792,0 c -1.92,1.1e-4 -3.456,0.7681 -4.608,2.304 -1.152,1.5361 -1.728,3.2641 -1.728,5.184 0,3.64809 1.584,5.47209 4.752,5.472 l 11.088,0 -6.192,51.84 c -4.128,4e-5 -6.672,0.19204 -7.632,0.576 -1.728,0.67204 -3.12,2.64004 -4.176,5.904 l -8.784,25.92 c -0.096,0.48001 -0.144,1.00801 -0.144,1.584 0,1.34401 0.48,2.496 1.44,3.456 0.96,0.96 2.112,1.44 3.456,1.44 l 77.616,0 c 1.7279,0 3.2639,-0.672 4.608,-2.016 1.3439,-1.34399 1.9199,-2.83199 1.728,-4.464 l -2.304,-25.92 c -0.3841,-3.35996 -1.4401,-5.37596 -3.168,-6.048 -0.6721,-0.28796 -3.0721,-0.43196 -7.2,-0.432 l 6.192,-51.84 11.088,0 c 1.9199,9e-5 3.4559,-0.76791 4.608,-2.304 1.1519,-1.5359 1.7279,-3.2639 1.728,-5.184 -10e-5,-3.6479 -1.5841,-5.47189 -4.752,-5.472"
         style="font-weight:normal;fill:#cccccc;font-family:Webster World;-inkscape-font-specification:Webster World"
         id="path4139-0"
         inkscape:connector-curvature="0" />
      <path
         d="m 1283.7607,306.25549 c 3.8399,1.1e-4 6.7679,1.24811 8.784,3.744 2.0159,2.4001 3.0239,5.3281 3.024,8.784 -10e-5,3.93609 -1.1521,7.29609 -3.456,10.08 -2.4961,3.16808 -5.8081,4.75208 -9.936,4.752 l -49.104,0 -1.296,11.52 30.672,0 c 7.7759,7e-5 11.6639,4.70407 11.664,14.112 -10e-5,2.01605 -0.3841,6.09605 -1.152,12.24 5.2799,1.15204 8.3999,5.32804 9.36,12.528 1.6319,12.19202 2.4479,19.44001 2.448,21.744 -10e-5,12.384 -4.5121,18.57599 -13.536,18.576 l -77.616,0 c -7.776,-10e-6 -11.664,-3.984 -11.664,-11.952 0,-4.22399 1.152,-9.69599 3.456,-16.416 0.192,-0.57598 1.968,-5.08798 5.328,-13.536 2.976,-7.58396 7.344,-11.37596 13.104,-11.376 l 6.768,0 c -4.2241,-2.39995 -6.3361,-8.06395 -6.336,-16.992 -10e-5,-4.99193 1.0559,-13.00793 3.168,-24.048 0.3839,-2.49591 1.0079,-6.14391 1.872,-10.944 0.5759,-3.6479 2.0639,-6.6719 4.464,-9.072 2.3999,-2.49589 5.3759,-3.74389 8.928,-3.744 l 61.056,0 m -3.6,3.6 -61.056,0 c -1.6321,1.1e-4 -3.0241,0.6721 -4.176,2.016 -1.1521,1.3441 -1.8721,2.8321 -2.16,4.464 l -4.608,38.88 c -0.1921,1.63206 0.1439,3.12006 1.008,4.464 0.8639,1.34405 2.1119,2.01605 3.744,2.016 l 38.88,0 -1.584,12.96 -49.968,0 c -2.784,4e-5 -4.896,2.16004 -6.336,6.48 l -8.64,25.92 c -0.192,0.48001 -0.288,1.00801 -0.288,1.584 0,1.34401 0.48,2.496 1.44,3.456 1.056,0.96 2.256,1.44 3.6,1.44 l 77.616,0 c 1.6319,0 3.1199,-0.672 4.464,-2.016 1.4399,-1.34399 2.0639,-2.83199 1.872,-4.464 l -2.448,-25.92 c -0.2881,-3.35996 -1.2961,-5.37596 -3.024,-6.048 -0.7681,-0.28796 -3.1681,-0.43196 -7.2,-0.432 l 2.304,-19.584 c 0.1919,-1.63194 -0.1921,-3.07194 -1.152,-4.32 -0.8641,-1.34393 -2.0641,-2.01593 -3.6,-2.016 l -38.88,0 3.168,-25.92 55.44,0 c 1.9199,9e-5 3.4559,-0.76791 4.608,-2.304 1.1519,-1.5359 1.7279,-3.2639 1.728,-5.184 -10e-5,-3.6479 -1.5841,-5.47189 -4.752,-5.472"
         style="font-weight:normal;fill:#cccccc;font-family:Webster World;-inkscape-font-specification:Webster World"
         id="path4141-9"
         inkscape:connector-curvature="0" />
    </g>
    <path
       inkscape:connector-curvature="0"
       d="m 602.46489,729.1361 c 1.5554,10.97462 2.33313,17.49889 2.33319,19.57283 -6e-5,11.14744 -4.10474,16.72116 -12.31404,16.72116 l -29.94256,0 c -6.91315,0 -10.36971,-3.54298 -10.36971,-10.62896 0,-3.80222 1.03697,-8.77104 3.11091,-14.90646 1.55545,-4.06145 3.11091,-8.12292 4.66638,-12.18441 2.41959,-6.22179 6.09219,-9.59195 11.01782,-10.11047 l 1.01636,-7.97699 1.2512,-11.01782 c 0.39978,-3.52027 1.03696,-6.5674 3.11092,-9.0735 2.33317,-2.85158 5.35766,-4.27741 9.0735,-4.27751 l 0.31917,0 c 3.3701,10e-5 6.04894,1.16669 8.03653,3.49978 1.72823,2.07403 2.59236,4.66646 2.59243,7.77729 l -2.32749,21.32799 c 4.75274,1.03701 7.56119,4.79603 8.42539,11.27707 m -16.65614,-40.28796 c -1.47804,-0.22504 -2.15238,-0.1286 -3.63043,-0.35363 -1.72831,9e-5 -3.11093,0.6914 -4.14788,2.07394 -1.03699,1.38272 -1.55548,2.93818 -1.55546,4.66637 l -0.47322,4.92562 -2.44219,20.55026 c -3.71583,4e-5 -6.00581,0.17287 -6.86994,0.51849 -1.55547,0.60493 -2.80848,2.37643 -3.75902,5.31448 l -7.90691,23.33185 c -0.0864,0.43208 -0.12963,0.90736 -0.12962,1.42584 -10e-6,1.2098 0.43206,2.24677 1.29621,3.11091 0.86414,0.86414 1.90111,1.29621 3.11092,1.29621 l 29.94255,0 c 1.55542,0 2.93805,-0.6049 4.14789,-1.8147 1.20976,-1.20979 1.72824,-2.54921 1.55546,-4.01826 l -2.07394,-23.33185 c -0.34571,-3.02447 -1.29626,-4.83918 -2.85168,-5.4441 -0.60493,-0.25921 -2.76529,-0.38883 -6.48107,-0.38887 l 3.23484,-27.29058"
       style="font-size:144px;font-style:normal;font-variant:normal;font-weight:normal;font-stretch:normal;line-height:125%;letter-spacing:0px;word-spacing:0px;fill:#cccccc;fill-opacity:1;stroke:none;font-family:Webster World;-inkscape-font-specification:Webster World"
       id="path4085-1"
       sodipodi:nodetypes="ccsssccccscccccccccccccccccssscccccc" />
    <g
       id="g4045-9-9"
       transform="matrix(0.90014896,0,0,0.90014896,-5.0375953,1383.546)"
       style="stroke:#ffffff">
      <path
         sodipodi:nodetypes="csc"
         inkscape:connector-curvature="0"
         inkscape:original-d="m 673.27993,-704.76777 c 0,0 3.12487,-0.27098 5.01361,-1.53197 1.2178,-0.81304 2.73381,-3.39403 2.73381,-3.39403"
         inkscape:path-effect="#path-effect3779-3-3-6"
         id="path3777-7-8-6"
         d="m 673.27993,-704.76777 c 1.7781,0.053 3.56884,-0.49413 5.01361,-1.53197 1.19428,-0.8579 2.14999,-2.04442 2.73381,-3.39403"
         style="fill:none;stroke:#ffffff;stroke-width:0.89364398;stroke-linecap:butt;stroke-linejoin:miter;stroke-miterlimit:4;stroke-opacity:1;stroke-dasharray:none" />
      <g
         style="stroke:#ffffff;stroke-width:5;stroke-miterlimit:4;stroke-dasharray:none"
         transform="matrix(0.17872879,0,0,0.17872879,626.29979,-844.1626)"
         id="g3853-9-3-7">
        <path
           sodipodi:type="arc"
           style="fill:none;stroke:#ffffff;stroke-width:5;stroke-miterlimit:4;stroke-dasharray:none;stroke-dashoffset:0"
           id="path3783-9-7-1"
           sodipodi:cx="314.28571"
           sodipodi:cy="729.50507"
           sodipodi:rx="12.857142"
           sodipodi:ry="12.857142"
           d="m 327.14285,729.50507 c 0,7.1008 -5.75634,12.85714 -12.85714,12.85714 -7.10081,0 -12.85715,-5.75634 -12.85715,-12.85714 0,-7.10081 5.75634,-12.85715 12.85715,-12.85715 7.1008,0 12.85714,5.75634 12.85714,12.85715 z"
           transform="translate(-8.5050763,23.780638)" />
        <path
           sodipodi:nodetypes="csc"
           inkscape:connector-curvature="0"
           inkscape:original-d="m 307.00001,739.5687 c 4.64286,-12.14286 -2.82494,-2.98035 3.92858,-6.78572 4.2308,-2.38391 4.99999,-3.21428 4.99999,-3.21428"
           inkscape:path-effect="#path-effect3803-5-4-1"
           id="path3801-5-9-1"
           d="m 307.00001,739.5687 c 0.66532,-2.56079 2.03909,-4.93366 3.92858,-6.78572 1.42483,-1.39661 3.13789,-2.49786 4.99999,-3.21428"
           style="fill:none;stroke:#ffffff;stroke-width:5;stroke-linecap:butt;stroke-linejoin:miter;stroke-miterlimit:4;stroke-opacity:1;stroke-dasharray:none" />
        <path
           style="fill:none;stroke:#ffffff;stroke-width:5;stroke-linecap:butt;stroke-linejoin:miter;stroke-miterlimit:4;stroke-opacity:1;stroke-dasharray:none"
           d="m 305.48446,767.18554 c -0.66532,2.56079 -2.03909,4.93366 -3.92858,6.78572 -1.42483,1.39661 -3.13789,2.49786 -4.99999,3.21428"
           id="path3805-8-9-5"
           inkscape:path-effect="#path-effect3807-7-7-7"
           inkscape:original-d="m 305.48446,767.18554 c -4.64286,12.14286 2.82494,2.98035 -3.92858,6.78572 -4.2308,2.38391 -4.99999,3.21428 -4.99999,3.21428"
           inkscape:connector-curvature="0"
           sodipodi:nodetypes="csc" />
        <path
           style="fill:none;stroke:#ffffff;stroke-width:5;stroke-linecap:butt;stroke-linejoin:miter;stroke-miterlimit:4;stroke-opacity:1;stroke-dasharray:none"
           d="m 318.46429,754.10442 c 2.56079,0.66532 4.93366,2.03909 6.78572,3.92858 1.39661,1.42483 2.49786,3.13789 3.21428,4.99999"
           id="path3809-6-0-8"
           inkscape:path-effect="#path-effect3811-0-6-5"
           inkscape:original-d="m 318.46429,754.10442 c 12.14287,4.64285 2.98036,-2.82494 6.78572,3.92858 2.38391,4.2308 3.21428,4.99999 3.21428,4.99999"
           inkscape:connector-curvature="0"
           sodipodi:nodetypes="csc" />
        <path
           sodipodi:nodetypes="csc"
           inkscape:connector-curvature="0"
           inkscape:original-d="m 292.46429,754.78046 c -12.14287,-4.64285 -2.98036,2.82493 -6.78571,-3.92858 -2.38391,-4.23081 -3.21429,-5 -3.21429,-5"
           inkscape:path-effect="#path-effect3815-7-8-4"
           id="path3813-3-0-4"
           d="m 292.46429,754.78046 c -2.56078,-0.66533 -4.93365,-2.0391 -6.78571,-3.92858 -1.39661,-1.42483 -2.49787,-3.1379 -3.21429,-5"
           style="fill:none;stroke:#ffffff;stroke-width:5;stroke-linecap:butt;stroke-linejoin:miter;stroke-miterlimit:4;stroke-opacity:1;stroke-dasharray:none" />
        <path
           style="fill:none;stroke:#ffffff;stroke-width:5;stroke-linecap:butt;stroke-linejoin:miter;stroke-miterlimit:4;stroke-opacity:1;stroke-dasharray:none"
           d="m 296.58039,743.00843 c -1.34029,-2.2812 -2.04675,-4.93047 -2.02029,-7.57614 0.02,-1.99507 0.45257,-3.98509 1.26269,-5.80838"
           id="path3817-6-3-8"
           inkscape:path-effect="#path-effect3819-6-4-6"
           inkscape:original-d="m 296.58039,743.00843 c -5.30331,-11.86929 -4.10496,-0.1099 -2.02029,-7.57614 1.30595,-4.67732 1.26269,-5.80838 1.26269,-5.80838"
           inkscape:connector-curvature="0"
           sodipodi:nodetypes="csc" />
        <path
           sodipodi:nodetypes="csc"
           inkscape:connector-curvature="0"
           inkscape:original-d="m 317.38271,745.32667 c 11.86929,-5.30331 0.1099,-4.10496 7.57614,-2.02029 4.67732,1.30595 5.80838,1.26269 5.80838,1.26269"
           inkscape:path-effect="#path-effect3823-0-6-7"
           id="path3821-8-9-1"
           d="m 317.38271,745.32667 c 2.2812,-1.34029 4.93047,-2.04675 7.57614,-2.02029 1.99507,0.02 3.98509,0.45257 5.80838,1.26269"
           style="fill:none;stroke:#ffffff;stroke-width:5;stroke-linecap:butt;stroke-linejoin:miter;stroke-miterlimit:4;stroke-opacity:1;stroke-dasharray:none" />
        <path
           style="fill:none;stroke:#ffffff;stroke-width:5;stroke-linecap:butt;stroke-linejoin:miter;stroke-miterlimit:4;stroke-opacity:1;stroke-dasharray:none"
           d="m 315.06447,763.62391 c 1.34029,2.2812 2.04675,4.93047 2.02029,7.57614 -0.02,1.99507 -0.45257,3.98509 -1.26269,5.80838"
           id="path3825-9-2-7"
           inkscape:path-effect="#path-effect3827-4-6-3"
           inkscape:original-d="m 315.06447,763.62391 c 5.30331,11.86929 4.10496,0.1099 2.02029,7.57614 -1.30595,4.67732 -1.26269,5.80838 -1.26269,5.80838"
           inkscape:connector-curvature="0"
           sodipodi:nodetypes="csc" />
        <path
           sodipodi:nodetypes="csc"
           inkscape:connector-curvature="0"
           inkscape:original-d="m 296.53501,763.53789 c -11.86929,5.30331 -0.1099,4.10496 -7.57614,2.02029 -4.67732,-1.30595 -5.80838,-1.26269 -5.80838,-1.26269"
           inkscape:path-effect="#path-effect3831-7-6-9"
           id="path3829-4-6-3"
           d="m 296.53501,763.53789 c -2.2812,1.34029 -4.93047,2.04675 -7.57614,2.02029 -1.99507,-0.02 -3.98509,-0.45257 -5.80838,-1.26269"
           style="fill:none;stroke:#ffffff;stroke-width:5;stroke-linecap:butt;stroke-linejoin:miter;stroke-miterlimit:4;stroke-opacity:1;stroke-dasharray:none" />
      </g>
    </g>
    <g
       id="g3983-0-7"
       transform="matrix(0.90014896,0,0,0.90014896,-4.2845307,1381.8189)"
       style="stroke:#cccccc">
      <path
         inkscape:connector-curvature="0"
         id="path4456-2-8-8"
         d="m 669.35694,-790.963 c -0.0316,-2.6429 -0.89921,-5.1701 -2.49087,-7.2553 -1.69857,-2.2252 -2.43344,-2.8418 -4.65544,-3.9061 -5.31086,-2.5437 -12.0281,-0.7501 -15.28572,4.0814 -0.69814,1.0355 -1.45982,1.8886 -1.69263,1.8957 -0.23281,0.01 -1.1265,-0.5161 -1.98598,-1.1629 -4.43069,-3.3344 -4.76092,-10.5418 -0.57616,-12.5749 1.9704,-0.9573 3.48152,-0.6276 6.72173,1.4666 3.99794,2.584 4.94666,2.9451 7.76258,2.954 2.82458,0.01 5.25016,-0.7421 9.80583,-3.0365 2.77159,-1.3958 5.93058,-2.4389 7.37694,-2.4357 4.43623,0.01 7.59661,3.6424 7.60403,8.7408 0.005,3.701 -1.04052,6.0885 -3.9354,8.9834 -2.35896,2.359 -4.40601,3.4665 -7.48843,4.0515 l -1.13638,0.2156 -0.0241,-2.0176 0,0 z"
         style="fill:#784421;fill-opacity:1;stroke:#cccccc;stroke-width:1.80543338999999992;stroke-miterlimit:4;stroke-opacity:1;stroke-dasharray:none;stroke-dashoffset:0" />
      <path
         inkscape:connector-curvature="0"
         id="path4458-6-0-2"
         d="m 654.14111,-809.3026 c 0,-0.3691 3.38233,-5.4559 3.90902,-5.8789 0.83944,-0.6741 4.34764,-0.5395 6.0464,0.2321 1.29583,0.5885 3.76587,3.0189 3.76587,3.7054 0,0.1388 -0.91333,0.6704 -2.02962,1.1815 -1.8583,0.8508 -2.43738,0.9292 -6.86064,0.9292 -2.65707,0 -4.83103,-0.076 -4.83103,-0.1693 z"
         style="fill:#784421;fill-opacity:1;stroke:#cccccc;stroke-width:1.80543338999999992;stroke-miterlimit:4;stroke-opacity:1;stroke-dasharray:none;stroke-dashoffset:0" />
      <path
         sodipodi:nodetypes="csssscssc"
         inkscape:connector-curvature="0"
         id="path4454-4-0-4"
         d="m 656.27719,-807.0016 c -0.83167,-0.081 -2.19511,-0.4262 -2.69299,-0.7084 -0.15856,-0.09 -0.11143,-0.095 0.62644,-0.065 0.43884,0.018 1.79208,0.087 2.70487,0.106 0.91279,0.019 2.11921,0.053 2.68093,0.075 l 1.48409,0.01 -0.84577,0.1479 c -0.60282,0.1053 -1.58939,0.3679 -2.29794,0.4364 -0.71676,0.069 -0.92962,0.069 -1.65963,0 z"
         style="fill:#aa0000;fill-opacity:1;stroke:#cccccc;stroke-width:0.31915854999999999;stroke-miterlimit:4;stroke-opacity:1;stroke-dasharray:none;stroke-dashoffset:0" />
      <path
         sodipodi:nodetypes="ccsc"
         inkscape:connector-curvature="0"
         inkscape:original-d="m 652.05371,-807.8734 5.09371,-8.016 c 0,0 12.48816,-3.2005 10.61576,2.7146 -0.37331,1.1793 1.25584,2.4694 1.25584,2.4694"
         inkscape:path-effect="#path-effect3771-7-5-1"
         id="path3769-7-3-3"
         d="m 652.05371,-807.8734 5.09371,-8.016 c 1.79193,-0.8398 3.87733,-1.03631 5.79459,-0.54604 1.91726,0.49028 3.65234,1.66374 4.82117,3.26064 0.5478,0.74843 0.97369,1.58587 1.25584,2.4694"
         style="fill:none;stroke:#cccccc;stroke-width:1.42983031000000005;stroke-linecap:butt;stroke-linejoin:miter;stroke-miterlimit:4;stroke-opacity:1;stroke-dasharray:none" />
      <path
         sodipodi:nodetypes="cc"
         inkscape:connector-curvature="0"
         id="rect3864-9-4-9"
         d="m 652.65022,-808.4346 11.25921,0.285"
         style="fill:#aa0000;stroke:#cccccc;stroke-width:1.25110148999999993;stroke-miterlimit:4;stroke-dasharray:none;stroke-dashoffset:0" />
      <path
         sodipodi:nodetypes="cszssscsc"
         inkscape:connector-curvature="0"
         inkscape:original-d="m 668.36045,-788.0765 c 0.98501,-4.7641 7.32083,-7.7619 14.35335,-11.4165 12.44991,-6.4699 -3.36678,-3.6396 -5.22163,-11.766 -1.85484,-8.1265 -17.91692,19.3193 -22.93431,4.6853 -1.5159,-4.4214 -7.39924,-3.4863 -11.2514,-4.7083 -3.85216,-1.2219 -0.97901,4.0652 -4.48062,5.4592 -7.85654,3.1278 5.30025,2.7936 7.4952,10.96 0,0 7.87385,-8.1638 12.55167,-7.0752 5.45349,1.2691 9.48774,13.8615 9.48774,13.8615 z"
         inkscape:path-effect="#path-effect3767-2-9-3"
         id="path3765-7-4-4"
         d="m 668.36045,-788.0765 c 3.30748,0.0356 6.61586,-1.09973 9.20453,-3.15874 2.58867,-2.059 4.43931,-5.02708 5.14882,-8.25776 0.50197,-2.28567 0.43283,-4.73054 -0.43956,-6.90199 -0.87239,-2.17145 -2.59207,-4.03929 -4.78207,-4.86401 -1.87787,-0.70717 -3.98078,-0.62488 -5.92466,-0.12708 -1.94389,0.4978 -3.76094,1.38918 -5.5548,2.28837 -1.79387,0.89918 -3.59399,1.81756 -5.52151,2.37539 -1.92751,0.55782 -4.01525,0.73805 -5.93334,0.14862 -1.99001,-0.61153 -3.63555,-1.98648 -5.38589,-3.11361 -0.87516,-0.56357 -1.79445,-1.07356 -2.78609,-1.39008 -0.99163,-0.31652 -2.0638,-0.43273 -3.07942,-0.20461 -1.21925,0.27385 -2.30085,1.03891 -3.06215,2.02986 -0.7613,0.99096 -1.21532,2.19633 -1.41847,3.42934 -0.39719,2.41079 0.16972,4.96681 1.54894,6.98359 1.37922,2.01679 3.55557,3.47217 5.94626,3.97641 0.97501,-2.4017 2.78258,-4.4561 5.04062,-5.72892 2.25803,-1.27283 4.95151,-1.7556 7.51105,-1.34628 3.09336,0.49469 5.95384,2.30635 7.72326,4.89145 1.76942,2.58511 2.42293,5.90736 1.76448,8.97005"
         style="fill:none;stroke:#cccccc;stroke-width:1.42983031000000005;stroke-linecap:butt;stroke-linejoin:miter;stroke-miterlimit:4;stroke-opacity:1;stroke-dasharray:none" />
    </g>
    <path
       style="fill:#aa0000;stroke:#cccccc;stroke-width:1.28706026000000007;stroke-miterlimit:4;stroke-dasharray:none;stroke-dashoffset:0"
       d="m 569.27755,688.51123 c 6.96201,-6.962 29.53726,-1.28593 29.53726,-1.28593 -6.90692,7.48931 -11.72421,17.06823 -20.72077,22.4679 l -8.81649,-10.6448 c 0,0 -2.78672,-7.75044 0,-10.53717 z"
       id="rect3867-4-1-0"
       inkscape:connector-curvature="0"
       sodipodi:nodetypes="scccs" />
    <g
       id="g3874-4-3-1"
       transform="matrix(0.16088253,0,0,0.16088253,555.34507,626.49198)"
       style="fill:#ffffff;stroke:#ffffff;stroke-width:5;stroke-miterlimit:4;stroke-opacity:1;stroke-dasharray:none">
      <path
         inkscape:connector-curvature="0"
         id="path3870-2-1-4"
         d="m 103.57143,385.21932 0,16.42858"
         style="fill:#ffffff;stroke:#ffffff;stroke-width:5;stroke-linecap:butt;stroke-linejoin:miter;stroke-miterlimit:4;stroke-opacity:1;stroke-dasharray:none" />
      <path
         style="fill:#ffffff;stroke:#ffffff;stroke-width:5;stroke-linecap:butt;stroke-linejoin:miter;stroke-miterlimit:4;stroke-opacity:1;stroke-dasharray:none"
         d="m 111.78572,393.43361 -16.42858,0"
         id="path3872-1-7-9"
         inkscape:connector-curvature="0" />
    </g>
    <g
       transform="matrix(0.16088253,0,0,0.16088253,559.49422,626.49198)"
       id="g3887-4-2-9"
       style="fill:#ffffff;stroke:#ffffff;stroke-width:5;stroke-miterlimit:4;stroke-opacity:1;stroke-dasharray:none">
      <path
         style="fill:#ffffff;stroke:#ffffff;stroke-width:5;stroke-linecap:butt;stroke-linejoin:miter;stroke-miterlimit:4;stroke-opacity:1;stroke-dasharray:none"
         d="m 103.57143,385.21932 0,16.42858"
         id="path3889-1-7-1"
         inkscape:connector-curvature="0" />
      <path
         inkscape:connector-curvature="0"
         id="path3891-8-6-6"
         d="m 111.78572,393.43361 -16.42858,0"
         style="fill:#ffffff;stroke:#ffffff;stroke-width:5;stroke-linecap:butt;stroke-linejoin:miter;stroke-miterlimit:4;stroke-opacity:1;stroke-dasharray:none" />
    </g>
    <g
       id="g3893-6-8-8"
       transform="matrix(0.16088253,0,0,0.16088253,563.64335,626.49198)"
       style="fill:#ffffff;stroke:#ffffff;stroke-width:5;stroke-miterlimit:4;stroke-opacity:1;stroke-dasharray:none">
      <path
         inkscape:connector-curvature="0"
         id="path3895-5-4-1"
         d="m 103.57143,385.21932 0,16.42858"
         style="fill:#ffffff;stroke:#ffffff;stroke-width:5;stroke-linecap:butt;stroke-linejoin:miter;stroke-miterlimit:4;stroke-opacity:1;stroke-dasharray:none" />
      <path
         style="fill:#ffffff;stroke:#ffffff;stroke-width:5;stroke-linecap:butt;stroke-linejoin:miter;stroke-miterlimit:4;stroke-opacity:1;stroke-dasharray:none"
         d="m 111.78572,393.43361 -16.42858,0"
         id="path3897-7-4-5"
         inkscape:connector-curvature="0" />
    </g>
    <g
       transform="matrix(0.16088253,0,0,0.16088253,567.79248,626.49198)"
       id="g3899-9-4-1"
       style="fill:#ffffff;stroke:#ffffff;stroke-width:5;stroke-miterlimit:4;stroke-opacity:1;stroke-dasharray:none">
      <path
         style="fill:#ffffff;stroke:#ffffff;stroke-width:5;stroke-linecap:butt;stroke-linejoin:miter;stroke-miterlimit:4;stroke-opacity:1;stroke-dasharray:none"
         d="m 103.57143,385.21932 0,16.42858"
         id="path3901-5-5-0"
         inkscape:connector-curvature="0" />
      <path
         inkscape:connector-curvature="0"
         id="path3903-1-4-4"
         d="m 111.78572,393.43361 -16.42858,0"
         style="fill:#ffffff;stroke:#ffffff;stroke-width:5;stroke-linecap:butt;stroke-linejoin:miter;stroke-miterlimit:4;stroke-opacity:1;stroke-dasharray:none" />
    </g>
    <g
       id="g3905-6-0-8"
       transform="matrix(0.16088253,0,0,0.16088253,571.94161,626.49198)"
       style="fill:#ffffff;stroke:#ffffff;stroke-width:5;stroke-miterlimit:4;stroke-opacity:1;stroke-dasharray:none">
      <path
         inkscape:connector-curvature="0"
         id="path3907-1-2-4"
         d="m 103.57143,385.21932 0,16.42858"
         style="fill:#ffffff;stroke:#ffffff;stroke-width:5;stroke-linecap:butt;stroke-linejoin:miter;stroke-miterlimit:4;stroke-opacity:1;stroke-dasharray:none" />
      <path
         style="fill:#ffffff;stroke:#ffffff;stroke-width:5;stroke-linecap:butt;stroke-linejoin:miter;stroke-miterlimit:4;stroke-opacity:1;stroke-dasharray:none"
         d="m 111.78572,393.43361 -16.42858,0"
         id="path3909-2-6-7"
         inkscape:connector-curvature="0" />
    </g>
    <g
       transform="matrix(0.16088253,0,0,0.16088253,576.09076,626.49198)"
       id="g3911-0-9-6"
       style="fill:#ffffff;stroke:#ffffff;stroke-width:5;stroke-miterlimit:4;stroke-opacity:1;stroke-dasharray:none">
      <path
         style="fill:#ffffff;stroke:#ffffff;stroke-width:5;stroke-linecap:butt;stroke-linejoin:miter;stroke-miterlimit:4;stroke-opacity:1;stroke-dasharray:none"
         d="m 103.57143,385.21932 0,16.42858"
         id="path3913-8-2-4"
         inkscape:connector-curvature="0" />
      <path
         inkscape:connector-curvature="0"
         id="path3915-9-6-2"
         d="m 111.78572,393.43361 -16.42858,0"
         style="fill:#ffffff;stroke:#ffffff;stroke-width:5;stroke-linecap:butt;stroke-linejoin:miter;stroke-miterlimit:4;stroke-opacity:1;stroke-dasharray:none" />
    </g>
    <g
       transform="matrix(0.16088253,0,0,0.16088253,555.34507,630.85879)"
       id="g4025-1-4-4"
       style="fill:#ffffff;stroke:#ffffff;stroke-width:5;stroke-miterlimit:4;stroke-opacity:1;stroke-dasharray:none">
      <path
         style="fill:#ffffff;stroke:#ffffff;stroke-width:5;stroke-linecap:butt;stroke-linejoin:miter;stroke-miterlimit:4;stroke-opacity:1;stroke-dasharray:none"
         d="m 103.57143,385.21932 0,16.42858"
         id="path4027-9-3-5"
         inkscape:connector-curvature="0" />
      <path
         inkscape:connector-curvature="0"
         id="path4029-6-0-9"
         d="m 111.78572,393.43361 -16.42858,0"
         style="fill:#ffffff;stroke:#ffffff;stroke-width:5;stroke-linecap:butt;stroke-linejoin:miter;stroke-miterlimit:4;stroke-opacity:1;stroke-dasharray:none" />
    </g>
    <g
       id="g4031-1-1-9"
       transform="matrix(0.16088253,0,0,0.16088253,555.34507,635.22568)"
       style="fill:#ffffff;stroke:#ffffff;stroke-width:5;stroke-miterlimit:4;stroke-opacity:1;stroke-dasharray:none">
      <path
         inkscape:connector-curvature="0"
         id="path4033-7-6-5"
         d="m 103.57143,385.21932 0,16.42858"
         style="fill:#ffffff;stroke:#ffffff;stroke-width:5;stroke-linecap:butt;stroke-linejoin:miter;stroke-miterlimit:4;stroke-opacity:1;stroke-dasharray:none" />
      <path
         style="fill:#ffffff;stroke:#ffffff;stroke-width:5;stroke-linecap:butt;stroke-linejoin:miter;stroke-miterlimit:4;stroke-opacity:1;stroke-dasharray:none"
         d="m 111.78572,393.43361 -16.42858,0"
         id="path4035-9-8-8"
         inkscape:connector-curvature="0" />
    </g>
    <g
       id="g4043-7-1-2"
       transform="matrix(0.16088253,0,0,0.16088253,559.49422,630.85879)"
       style="fill:#ffffff;stroke:#ffffff;stroke-width:5;stroke-miterlimit:4;stroke-opacity:1;stroke-dasharray:none">
      <path
         inkscape:connector-curvature="0"
         id="path4045-6-8-1"
         d="m 103.57143,385.21932 0,16.42858"
         style="fill:#ffffff;stroke:#ffffff;stroke-width:5;stroke-linecap:butt;stroke-linejoin:miter;stroke-miterlimit:4;stroke-opacity:1;stroke-dasharray:none" />
      <path
         style="fill:#ffffff;stroke:#ffffff;stroke-width:5;stroke-linecap:butt;stroke-linejoin:miter;stroke-miterlimit:4;stroke-opacity:1;stroke-dasharray:none"
         d="m 111.78572,393.43361 -16.42858,0"
         id="path4047-1-1-3"
         inkscape:connector-curvature="0" />
    </g>
    <g
       transform="matrix(0.16088253,0,0,0.16088253,563.64335,630.85879)"
       id="g4049-2-7-3"
       style="fill:#ffffff;stroke:#ffffff;stroke-width:5;stroke-miterlimit:4;stroke-opacity:1;stroke-dasharray:none">
      <path
         style="fill:#ffffff;stroke:#ffffff;stroke-width:5;stroke-linecap:butt;stroke-linejoin:miter;stroke-miterlimit:4;stroke-opacity:1;stroke-dasharray:none"
         d="m 103.57143,385.21932 0,16.42858"
         id="path4051-7-2-7"
         inkscape:connector-curvature="0" />
      <path
         inkscape:connector-curvature="0"
         id="path4053-0-9-1"
         d="m 111.78572,393.43361 -16.42858,0"
         style="fill:#ffffff;stroke:#ffffff;stroke-width:5;stroke-linecap:butt;stroke-linejoin:miter;stroke-miterlimit:4;stroke-opacity:1;stroke-dasharray:none" />
    </g>
    <g
       id="g4055-8-0-3"
       transform="matrix(0.16088253,0,0,0.16088253,567.79248,630.85879)"
       style="fill:#ffffff;stroke:#ffffff;stroke-width:5;stroke-miterlimit:4;stroke-opacity:1;stroke-dasharray:none">
      <path
         inkscape:connector-curvature="0"
         id="path4057-1-7-8"
         d="m 103.57143,385.21932 0,16.42858"
         style="fill:#ffffff;stroke:#ffffff;stroke-width:5;stroke-linecap:butt;stroke-linejoin:miter;stroke-miterlimit:4;stroke-opacity:1;stroke-dasharray:none" />
      <path
         style="fill:#ffffff;stroke:#ffffff;stroke-width:5;stroke-linecap:butt;stroke-linejoin:miter;stroke-miterlimit:4;stroke-opacity:1;stroke-dasharray:none"
         d="m 111.78572,393.43361 -16.42858,0"
         id="path4059-2-0-5"
         inkscape:connector-curvature="0" />
    </g>
    <g
       transform="matrix(0.16088253,0,0,0.16088253,571.94161,630.85879)"
       id="g4061-1-8-2"
       style="fill:#ffffff;stroke:#ffffff;stroke-width:5;stroke-miterlimit:4;stroke-opacity:1;stroke-dasharray:none">
      <path
         style="fill:#ffffff;stroke:#ffffff;stroke-width:5;stroke-linecap:butt;stroke-linejoin:miter;stroke-miterlimit:4;stroke-opacity:1;stroke-dasharray:none"
         d="m 103.57143,385.21932 0,16.42858"
         id="path4063-7-9-0"
         inkscape:connector-curvature="0" />
      <path
         inkscape:connector-curvature="0"
         id="path4065-6-9-6"
         d="m 111.78572,393.43361 -16.42858,0"
         style="fill:#ffffff;stroke:#ffffff;stroke-width:5;stroke-linecap:butt;stroke-linejoin:miter;stroke-miterlimit:4;stroke-opacity:1;stroke-dasharray:none" />
    </g>
    <g
       transform="matrix(0.16088253,0,0,0.16088253,559.49422,635.22568)"
       id="g4169-1-6-8"
       style="fill:#ffffff;stroke:#ffffff;stroke-width:5;stroke-miterlimit:4;stroke-opacity:1;stroke-dasharray:none">
      <path
         style="fill:#ffffff;stroke:#ffffff;stroke-width:5;stroke-linecap:butt;stroke-linejoin:miter;stroke-miterlimit:4;stroke-opacity:1;stroke-dasharray:none"
         d="m 103.57143,385.21932 0,16.42858"
         id="path4171-4-8-8"
         inkscape:connector-curvature="0" />
      <path
         inkscape:connector-curvature="0"
         id="path4173-3-3-8"
         d="m 111.78572,393.43361 -16.42858,0"
         style="fill:#ffffff;stroke:#ffffff;stroke-width:5;stroke-linecap:butt;stroke-linejoin:miter;stroke-miterlimit:4;stroke-opacity:1;stroke-dasharray:none" />
    </g>
    <g
       id="g4175-8-2-5"
       transform="matrix(0.16088253,0,0,0.16088253,563.64335,635.22568)"
       style="fill:#ffffff;stroke:#ffffff;stroke-width:5;stroke-miterlimit:4;stroke-opacity:1;stroke-dasharray:none">
      <path
         inkscape:connector-curvature="0"
         id="path4177-3-4-9"
         d="m 103.57143,385.21932 0,16.42858"
         style="fill:#ffffff;stroke:#ffffff;stroke-width:5;stroke-linecap:butt;stroke-linejoin:miter;stroke-miterlimit:4;stroke-opacity:1;stroke-dasharray:none" />
      <path
         style="fill:#ffffff;stroke:#ffffff;stroke-width:5;stroke-linecap:butt;stroke-linejoin:miter;stroke-miterlimit:4;stroke-opacity:1;stroke-dasharray:none"
         d="m 111.78572,393.43361 -16.42858,0"
         id="path4179-8-8-0"
         inkscape:connector-curvature="0" />
    </g>
    <g
       transform="matrix(0.16088253,0,0,0.16088253,567.79248,635.22568)"
       id="g4181-2-7-9"
       style="fill:#ffffff;stroke:#ffffff;stroke-width:5;stroke-miterlimit:4;stroke-opacity:1;stroke-dasharray:none">
      <path
         style="fill:#ffffff;stroke:#ffffff;stroke-width:5;stroke-linecap:butt;stroke-linejoin:miter;stroke-miterlimit:4;stroke-opacity:1;stroke-dasharray:none"
         d="m 103.57143,385.21932 0,16.42858"
         id="path4183-1-4-9"
         inkscape:connector-curvature="0" />
      <path
         inkscape:connector-curvature="0"
         id="path4185-9-2-6"
         d="m 111.78572,393.43361 -16.42858,0"
         style="fill:#ffffff;stroke:#ffffff;stroke-width:5;stroke-linecap:butt;stroke-linejoin:miter;stroke-miterlimit:4;stroke-opacity:1;stroke-dasharray:none" />
    </g>
    <g
       transform="matrix(0.16088253,0,0,0.16088253,559.49422,639.59248)"
       id="g4301-4-3-7"
       style="fill:#ffffff;stroke:#ffffff;stroke-width:5;stroke-miterlimit:4;stroke-opacity:1;stroke-dasharray:none">
      <path
         style="fill:#ffffff;stroke:#ffffff;stroke-width:5;stroke-linecap:butt;stroke-linejoin:miter;stroke-miterlimit:4;stroke-opacity:1;stroke-dasharray:none"
         d="m 103.57143,385.21932 0,16.42858"
         id="path4303-2-6-5"
         inkscape:connector-curvature="0" />
      <path
         inkscape:connector-curvature="0"
         id="path4305-0-5-3"
         d="m 111.78572,393.43361 -16.42858,0"
         style="fill:#ffffff;stroke:#ffffff;stroke-width:5;stroke-linecap:butt;stroke-linejoin:miter;stroke-miterlimit:4;stroke-opacity:1;stroke-dasharray:none" />
    </g>
    <g
       transform="matrix(0.16088253,0,0,0.16088253,563.64335,639.59248)"
       id="g4355-5-1-1"
       style="fill:#ffffff;stroke:#ffffff;stroke-width:5;stroke-miterlimit:4;stroke-opacity:1;stroke-dasharray:none">
      <path
         style="fill:#ffffff;stroke:#ffffff;stroke-width:5;stroke-linecap:butt;stroke-linejoin:miter;stroke-miterlimit:4;stroke-opacity:1;stroke-dasharray:none"
         d="m 103.57143,385.21932 0,16.42858"
         id="path4357-3-2-1"
         inkscape:connector-curvature="0" />
      <path
         inkscape:connector-curvature="0"
         id="path4359-1-0-0"
         d="m 111.78572,393.43361 -16.42858,0"
         style="fill:#ffffff;stroke:#ffffff;stroke-width:5;stroke-linecap:butt;stroke-linejoin:miter;stroke-miterlimit:4;stroke-opacity:1;stroke-dasharray:none" />
    </g>
    <path
       style="fill:none;stroke:#000000;stroke-width:0.45464391"
       d="m 557.48555,754.86378 c -1.51003,-0.83042 -2.17099,-1.98314 -2.17099,-3.78624 0,-1.58341 8.22906,-25.96497 9.3312,-27.64706 1.02172,-1.55932 3.32915,-2.41993 6.48828,-2.41993 l 2.66401,0 0.55351,-5.11474 c 0.30442,-2.81311 0.66698,-5.69612 0.80569,-6.4067 l 0.2522,-1.29195 1.31313,1.25807 c 1.55856,1.49319 2.10266,1.31159 5.82417,-1.9439 l 2.31966,-2.02918 -0.004,1.28552 c -0.002,0.70704 -0.30888,3.73283 -0.68196,6.72398 -1.01405,8.12998 -1.19411,7.5189 2.21554,7.5189 3.35016,0 4.92467,0.91218 5.70183,3.30328 0.26287,0.80876 0.98506,7.08409 1.60486,13.94515 1.2447,13.77834 1.20631,14.20242 -1.46371,16.1679 -1.17369,0.86399 -2.03924,0.91449 -17.37509,1.01373 -13.62441,0.0881 -16.33293,-0.002 -17.3787,-0.57683 z"
       id="path4815"
       inkscape:connector-curvature="0" />
    <path
       style="fill:none;stroke:#000000;stroke-width:0.45464391"
       d="m 580.52663,672.61165 c -1.59567,-1.59568 -1.65158,-4.9214 -0.12464,-7.41439 1.21434,-1.98261 2.09435,-2.38112 5.25809,-2.38112 2.06061,0 2.89971,0.21212 3.66704,0.927 2.2257,2.07355 0.95779,8.11758 -1.98409,9.45798 -0.63551,0.28956 -2.17809,0.52647 -3.42797,0.52647 -1.80657,0 -2.50129,-0.22879 -3.38843,-1.11594 z"
       id="path4817"
       inkscape:connector-curvature="0" />
    <path
       style="fill:none;stroke:#000000;stroke-width:0.45464391"
       d="m 616.58925,754.85479 c -1.50815,-0.81845 -2.17098,-1.97153 -2.17098,-3.7767 0,-1.2486 7.9082,-25.1261 8.99318,-27.15339 1.09225,-2.04089 2.27938,-2.60446 5.93148,-2.81587 l 3.54743,-0.20536 2.61288,-22.11035 c 1.43708,-12.16069 2.72525,-22.77526 2.86261,-23.58794 l 0.24973,-1.47759 -5.98163,0 c -5.74468,0 -6.02584,-0.0442 -7.09757,-1.11594 -1.98281,-1.98281 -1.25943,-6.9092 1.32001,-8.98978 0.87618,-0.70672 2.41848,-0.78652 15.37581,-0.79563 l 14.40195,-0.0101 0.94228,1.19793 c 1.13293,1.44027 1.26327,4.59154 0.26941,6.51345 -1.25926,2.43514 -2.75119,3.20008 -6.24143,3.20008 -2.59295,0 -3.12836,0.12387 -3.00753,0.69586 0.28399,1.34435 23.79161,46.04849 24.05822,45.75124 0.14837,-0.16541 1.44481,-10.22335 2.88097,-22.35098 1.43616,-12.12763 2.71793,-22.51056 2.84837,-23.07318 0.2301,-0.99238 0.13324,-1.02294 -3.2426,-1.02294 -3.08839,0 -3.6053,-0.12552 -4.59572,-1.11595 -2.06509,-2.06507 -1.36425,-6.7137 1.35531,-8.98977 0.84479,-0.70703 2.36025,-0.78653 15.16686,-0.79563 l 14.22829,-0.0101 1.11594,1.11594 c 1.40623,1.40622 1.49278,4.09199 0.21275,6.60107 -1.50289,2.9459 -2.18333,3.19444 -8.74549,3.19444 -3.19506,0 -5.82469,0.0511 -5.84362,0.11366 -0.0189,0.0625 -1.30679,10.65004 -2.86192,23.52783 l -2.82751,23.41416 3.27085,0.22731 c 3.75362,0.26089 4.94252,1.02351 5.60555,3.59569 0.41405,1.60637 2.2153,20.28205 2.40343,24.91943 0.0834,2.05593 -0.0759,2.55281 -1.19201,3.71778 -2.21019,2.30695 -2.69843,2.36986 -17.27664,2.22617 l -13.5381,-0.13345 -0.87435,-1.08044 c -0.48089,-0.59424 -1.00771,-1.61181 -1.17071,-2.26126 -0.28426,-1.13255 0.98649,-13.4081 2.39118,-23.09905 l 0.66935,-4.61785 -7.29644,-13.94611 c -4.01303,-7.67037 -7.71549,-14.76756 -8.22769,-15.77153 -0.51218,-1.00397 -1.01544,-1.74121 -1.11835,-1.63831 -0.20835,0.20835 -3.38661,25.7 -3.38661,27.16272 0,0.84192 0.28407,0.92621 3.12118,0.92621 3.71027,0 5.313,0.95052 5.77747,3.4264 0.27755,1.47942 -0.87846,12.74724 -2.32227,22.63572 -0.70658,4.83928 -1.59912,6.64564 -3.86178,7.81572 -1.9158,0.99069 -26.8979,0.96148 -28.73154,-0.0336 l 0,1e-5 z"
       id="path4819"
       inkscape:connector-curvature="0" />
    <path
       style="fill:none;stroke:#000000;stroke-width:0.45464391"
       d="m 706.9383,755.13369 c -1.17257,-0.47992 -2.30674,-1.78815 -2.71782,-3.13491 -0.23283,-0.76281 0.94281,-4.79763 4.15169,-14.24861 5.48906,-16.16675 5.57681,-16.3025 10.75138,-16.63458 3.1198,-0.20021 3.53528,-0.33316 3.7133,-1.18819 0.35206,-1.69087 1.15059,-8.56209 1.15059,-9.90058 l 0,-1.29165 -3.32411,0 c -2.71079,0 -3.50666,-0.17009 -4.31361,-0.92187 -2.86418,-2.6684 -1.00979,-8.85827 2.98628,-9.96807 0.93294,-0.25909 2.73239,-0.47223 3.99879,-0.47363 l 2.30252,-0.003 1.25479,-11.02511 c 0.69013,-6.06382 1.35565,-11.38315 1.47892,-11.82075 0.20544,-0.72929 -0.28354,-0.79562 -5.86495,-0.79562 -5.73628,0 -6.14289,-0.0592 -7.01794,-1.02295 -1.98615,-2.1873 -1.62582,-6.19834 0.77226,-8.59641 l 1.29209,-1.29209 36.66369,0 c 23.38394,0 36.96903,0.16341 37.50669,0.45115 2.58928,1.38574 1.8908,7.98744 -1.02114,9.6512 -0.78089,0.44617 -7.05609,0.63477 -26.92079,0.8091 l -25.90254,0.22732 -1.24117,10.45681 c -0.68265,5.75125 -1.25073,11.0123 -1.26243,11.69124 l -0.0212,1.23443 23.17684,0.1295 23.17684,0.12951 1.18449,1.18482 c 0.93355,0.93382 1.1845,1.62881 1.1845,3.28052 0,2.48025 -1.48771,5.4329 -3.10976,6.17196 -0.75608,0.3445 -8.32747,0.50146 -24.18759,0.50146 l -23.08699,0 -0.56886,5.11475 c -0.31287,2.81311 -0.67724,5.57507 -0.80971,6.13769 -0.23314,0.99025 -0.13348,1.02295 3.11711,1.02295 3.94975,0 5.12308,0.61887 5.84949,3.0853 0.75752,2.57201 -2.3038,26.32916 -3.67958,28.55523 -1.76298,2.85255 -2.12707,2.91558 -16.65915,2.88358 -7.20148,-0.0158 -13.50277,-0.19628 -14.00288,-0.40098 z"
       id="path4821"
       inkscape:connector-curvature="0" />
    <path
       style="fill:none;stroke:#000000;stroke-width:0.45464391"
       d="m 793.32063,755.13369 c -1.15402,-0.47233 -2.30548,-1.78331 -2.69763,-3.07135 -0.20536,-0.67451 1.11818,-5.28879 4.0612,-14.15869 5.38483,-16.22916 5.48605,-16.38519 10.91516,-16.82562 l 3.63381,-0.29479 3.05356,-25.91471 c 1.67947,-14.25308 3.27003,-26.67117 3.53459,-27.59574 0.26456,-0.92457 1.10554,-2.30555 1.86883,-3.06885 l 1.3878,-1.3878 21.75494,0 21.75494,0 0.95216,1.21048 c 0.52369,0.66576 1.07071,1.68278 1.21559,2.26005 0.22174,0.88347 -5.27454,49.7204 -6.01811,53.47361 l -0.24769,1.25027 3.11747,0 c 3.45414,0 4.89825,0.6732 5.64234,2.63027 0.47553,1.25075 2.66469,22.5618 2.67338,26.02479 0.006,2.36419 -0.72214,3.61168 -2.88969,4.9513 -1.46133,0.90316 -2.14854,0.94658 -14.97824,0.94658 -13.39073,0 -13.45171,-0.005 -14.66699,-1.0497 -0.93317,-0.80269 -1.27003,-1.57834 -1.43147,-3.29617 -0.28631,-3.04656 2.41967,-25.35489 3.27651,-27.01184 1.21478,-2.34913 2.94837,-3.19523 6.54677,-3.19523 2.96951,0 3.23392,-0.0788 3.43288,-1.02295 0.36219,-1.71874 1.1657,-8.58891 1.1657,-9.96691 l 0,-1.29778 -15.10908,0.11979 -15.10907,0.11979 -0.55102,4.54644 c -0.30307,2.50054 -0.56233,5.21135 -0.57615,6.02404 l -0.0251,1.47758 2.98507,0 c 3.58153,0 4.61072,0.47955 5.47656,2.55181 0.59165,1.41601 0.51694,2.77811 -0.76477,13.9437 -1.55265,13.52582 -2.126,15.62734 -4.69007,17.19086 -1.3074,0.79723 -2.42279,0.8611 -14.60021,0.83605 -7.25157,-0.0149 -13.59385,-0.19459 -14.09396,-0.39928 l 0,0 z m 59.84421,-68.22143 c 0.68579,-5.62622 1.34949,-10.8944 1.47488,-11.70708 l 0.22799,-1.47759 -15.20198,0 c -8.3611,0 -15.21443,0.0511 -15.22962,0.11366 -0.0152,0.0625 -0.69049,5.38452 -1.50064,11.82668 l -1.47302,11.71302 15.22774,-0.11961 15.22774,-0.11959 1.24691,-10.22949 z"
       id="path4823"
       inkscape:connector-curvature="0" />
    <path
       style="fill:none;stroke:#000000;stroke-width:0.45464391"
       d="m 883.11279,755.06978 c -1.51765,-0.60872 -2.70533,-2.19503 -2.71774,-3.6299 -0.0122,-1.40423 7.6876,-24.51207 9.07162,-27.22497 1.19633,-2.34501 3.02431,-3.20436 6.81619,-3.20436 1.50837,0 2.74247,-0.13021 2.74247,-0.28935 0,-0.15915 1.22754,-10.58215 2.72787,-23.16223 1.50032,-12.58009 2.72786,-23.08854 2.72786,-23.35212 0,-0.31143 -2.07739,-0.47926 -5.93208,-0.47926 -5.83085,0 -5.9511,-0.0205 -7.04698,-1.203 -1.95968,-2.11453 -1.23492,-6.65661 1.39186,-8.72283 1.22402,-0.96281 1.5784,-0.98562 15.31556,-0.98562 8.66235,0 14.3943,0.17755 14.92649,0.46238 1.76055,0.94221 2.02425,5.21601 0.49782,8.06817 -0.74364,1.38951 -2.84065,2.3809 -5.03613,2.3809 -1.16978,0 -1.84119,0.20723 -1.84125,0.56831 -1.6e-4,0.84177 21.09948,63.52291 21.38546,63.53023 0.25159,0.006 36.12045,-62.05047 36.62481,-63.36487 0.23422,-0.61034 -0.0738,-0.73367 -1.8337,-0.73367 -1.63953,0 -2.36613,-0.25093 -3.23117,-1.11594 -2.11355,-2.1136 -1.11186,-7.88309 1.6227,-9.34662 0.50048,-0.26784 6.54381,-0.44889 14.98325,-0.44889 l 14.1446,0 1.1159,1.11594 c 1.4062,1.40622 1.4928,4.09199 0.2127,6.60107 -1.5025,2.94521 -2.18412,3.19444 -8.73676,3.19444 -5.64474,0 -5.80668,0.0275 -6.02856,1.02295 -0.1254,0.56262 -1.35347,10.63867 -2.72908,22.39121 -1.37551,11.75254 -2.60152,21.93089 -2.72439,22.61853 l -0.2235,1.25027 3.10983,0 c 3.69475,0 5.23887,0.9253 5.92064,3.54787 0.51083,1.96467 2.31293,21.59451 2.31293,25.19354 0,2.09665 -0.18426,2.6307 -1.2503,3.62502 -0.68763,0.64137 -1.69714,1.39571 -2.24336,1.67631 -1.24769,0.64105 -26.38714,0.70834 -28.05278,0.0751 -1.43979,-0.5474 -2.55192,-2.65353 -2.55192,-4.83274 0,-3.32004 2.7505,-23.64599 3.45783,-25.55315 0.9863,-2.65928 2.37784,-3.45741 6.50673,-3.73194 l 3.41904,-0.22731 1.49019,-12.50271 c 0.81959,-6.87649 1.4397,-13.07884 1.37813,-13.78301 -0.0882,-1.00484 -3.72779,5.00703 -16.91767,27.94218 -9.24318,16.07236 -17.37468,29.87047 -18.07004,30.66246 -0.69537,0.79199 -1.858,1.68591 -2.58366,1.98648 -1.79829,0.74488 -3.75134,-0.28715 -4.82494,-2.54961 -0.44384,-0.93531 -5.07964,-14.39611 -10.30179,-29.91286 -5.22215,-15.51675 -9.59698,-28.4973 -9.72184,-28.84566 -0.12487,-0.34835 -0.3365,-0.5239 -0.47031,-0.3901 -0.2099,0.20991 -3.35899,25.49701 -3.36886,27.05184 -0.003,0.40145 0.94107,0.5683 3.21387,0.5683 2.94997,0 3.32798,0.11049 4.54644,1.32896 1.10307,1.10306 1.32846,1.70199 1.32601,3.52349 -0.005,3.61924 -2.67799,24.16391 -3.34888,25.73838 -0.34252,0.80386 -1.17679,1.97304 -1.85392,2.59818 l -1.23115,1.13661 -13.48971,0.0948 c -8.19352,0.0575 -13.93596,-0.0842 -14.62633,-0.36114 z"
       id="path4825"
       inkscape:connector-curvature="0" />
    <path
       style="fill:none;stroke:#000000;stroke-width:0.45464391"
       d="m 1005.6283,754.92883 c -1.3884,-0.60493 -2.4895,-2.32923 -2.4895,-3.89849 0,-1.10124 8.0265,-24.69757 9.1793,-26.98533 1.0901,-2.16346 3.0187,-3.03446 6.7187,-3.03446 1.5082,0 2.7423,-0.0923 2.7423,-0.20508 0,-0.1128 1.4456,-12.12981 3.2124,-26.70448 2.0594,-16.98823 3.4666,-27.03504 3.9205,-27.99179 0.3895,-0.82081 1.2772,-1.89754 1.9726,-2.39273 1.2175,-0.86693 2.0647,-0.90033 22.833,-0.90033 19.9728,0 21.6219,0.059 22.2894,0.79646 1.8737,2.07033 1.8697,2.14904 -1.4778,29.69963 -1.7566,14.45706 -3.1938,26.60342 -3.1938,26.99194 0,0.55965 0.5622,0.70638 2.7065,0.70638 3.358,0 4.783,0.6231 5.6622,2.4758 0.443,0.93375 1.0975,6.04296 1.8602,14.52344 1.1388,12.66251 1.1504,13.12755 0.3613,14.47127 -0.4485,0.76358 -1.5283,1.76951 -2.3996,2.23538 -1.5073,0.80598 -3.3038,0.84618 -37.0534,0.82925 -28.3172,-0.0142 -35.7466,-0.13859 -36.8443,-0.61686 l 0,0 z m 56.1596,-34.50917 c 0,-0.325 1.2261,-10.81023 2.7246,-23.3005 1.4986,-12.49028 2.7262,-22.86305 2.728,-23.05059 0,-0.18754 -6.8507,-0.34098 -15.2275,-0.34098 -11.8796,0 -15.2312,0.12503 -15.2338,0.56831 0,0.31257 -1.2292,10.78762 -2.7278,23.2779 -1.4985,12.49027 -2.7247,22.8732 -2.7247,23.07317 0,0.19997 6.8538,0.36358 15.2306,0.36358 12.192,0 15.2306,-0.11788 15.2306,-0.59089 z"
       id="path4827"
       inkscape:connector-curvature="0" />
    <path
       style="fill:none;stroke:#000000;stroke-width:0.45464391"
       d="m 1185.9056,755.24095 c -0.375,-0.13791 -1.0635,-0.58209 -1.5298,-0.98706 -1.9671,-1.70842 -1.8858,-2.2124 2.4915,-15.44577 4.4178,-13.35575 5.1757,-15.22191 6.7663,-16.66096 0.9705,-0.87806 1.8114,-0.91709 24.4855,-1.13661 l 23.4804,-0.22731 0.688,-5.91038 0.688,-5.91037 -18.4635,-0.22732 c -14.6983,-0.18097 -18.6161,-0.35421 -19.2126,-0.84957 -1.8386,-1.52698 -1.812,-3.06819 0.3667,-21.20066 1.1417,-9.50206 2.1954,-17.92829 2.3415,-18.72496 0.1462,-0.79666 0.9775,-2.27995 1.8474,-3.29617 l 1.5816,-1.84767 29.3097,0 29.3098,0 1.1159,1.11594 c 1.4062,1.40622 1.4928,4.09199 0.2128,6.60107 -1.7284,3.38781 0.011,3.19444 -28.7293,3.19444 l -25.7929,0 -0.2375,1.47759 c -0.4455,2.77154 -2.5316,20.21934 -2.5316,21.17354 0,0.94703 0.079,0.95176 18.1386,1.08443 16.8025,0.12343 18.2059,0.19427 19.0535,0.96174 1.9877,1.79993 2.0801,2.86618 1.0395,12.00698 -0.5343,4.69304 -1.073,8.99311 -1.1971,9.55573 -0.2167,0.98263 -0.1039,1.02295 2.8644,1.02295 3.4375,0 4.8725,0.67779 5.6248,2.6566 0.5104,1.3422 2.6636,22.18401 2.6666,25.811 0,1.67208 -0.2648,2.66473 -0.9475,3.53257 -2.0973,2.66638 -0.3798,2.55596 -39.1502,2.51687 -19.5792,-0.0197 -35.9054,-0.14873 -36.2805,-0.28664 z"
       id="path4829"
       inkscape:connector-curvature="0" />
    <path
       style="fill:none;stroke:#000000;stroke-width:0.45464391"
       d="m 1095.3292,754.85479 c -1.5081,-0.81845 -2.1709,-1.97153 -2.1709,-3.7767 0,-1.2486 7.9082,-25.1261 8.9932,-27.15339 1.0922,-2.04089 2.2793,-2.60446 5.9314,-2.81587 l 3.5475,-0.20536 2.6129,-22.11035 c 1.437,-12.16069 2.7253,-22.77526 2.8625,-23.58794 l 0.2498,-1.47759 -5.9817,0 c -5.7446,0 -6.0257,-0.0442 -7.0975,-1.11594 -1.9828,-1.98281 -1.2594,-6.9092 1.32,-8.98978 0.8761,-0.70672 2.4185,-0.78652 15.3758,-0.79563 l 14.402,-0.0101 0.9422,1.19793 c 1.133,1.44027 1.2633,4.59154 0.2695,6.51345 -1.2765,2.46848 -2.7387,3.20008 -6.3955,3.20008 l -3.3085,0 -0.2731,1.70491 c -0.4585,2.86305 -5.2626,43.60561 -5.2626,44.63086 0,0.95932 0,0.95944 15.1108,0.83966 l 15.1108,-0.11979 2.5744,-21.59559 c 1.4159,-11.87757 2.6934,-22.46509 2.839,-23.52781 l 0.2644,-1.93224 -3.4217,0 c -3.0269,0 -3.5506,-0.12882 -4.5378,-1.11595 -2.0651,-2.06507 -1.3642,-6.7137 1.3553,-8.98977 0.8448,-0.70703 2.3603,-0.78653 15.1669,-0.79563 l 14.2283,-0.0101 1.1159,1.11594 c 1.4062,1.40622 1.4928,4.09199 0.2128,6.60107 -1.5025,2.94521 -2.1842,3.19444 -8.7368,3.19444 -5.6469,0 -5.8065,0.0271 -6.0215,1.02295 -0.1214,0.56262 -1.3563,10.74096 -2.7442,22.61854 -1.3878,11.87756 -2.6261,22.05591 -2.7517,22.61853 -0.2195,0.98388 -0.1087,1.02294 2.9017,1.02294 3.7172,0 5.2596,0.92168 5.9374,3.54788 0.4235,1.64069 2.2252,20.25468 2.4161,24.96108 0.08,1.966 -0.094,2.57013 -1.025,3.56668 -2.4223,2.59263 -0.6092,2.47882 -39.1747,2.4591 -30.5297,-0.0156 -35.7749,-0.11393 -36.8374,-0.69049 l 0,0 z"
       id="path4831"
       inkscape:connector-curvature="0" />
  </g>
</svg>
