<?xml version="1.0" encoding="UTF-8"?>
<svg xmlns="http://www.w3.org/2000/svg" xmlns:xlink="http://www.w3.org/1999/xlink" width="487pt" height="318pt" viewBox="0 0 487 318" version="1.1">
<defs>
<linearGradient id="linear0" gradientUnits="userSpaceOnUse" x1="381.83768" y1="660.42303" x2="381.83768" y2="235.14418" gradientTransform="matrix(0.85225,0,0,0.875,-58.439979,-193.933042)">
<stop offset="0" style="stop-color:rgb(30%,30%,30%);stop-opacity:1;"/>
<stop offset="0.7" style="stop-color:rgb(60%,60%,60%);stop-opacity:1;"/>
<stop offset="1" style="stop-color:rgb(30%,30%,30%);stop-opacity:1;"/>
</linearGradient>
<radialGradient id="radial0" gradientUnits="userSpaceOnUse" cx="634.19897" cy="300.75153" fx="634.19897" fy="300.75153" r="217.67741" gradientTransform="matrix(-0.146179,0.609078,-0.850859,-0.204205,463.052061,-179.473052)">
<stop offset="0" style="stop-color:rgb(50.9804%,50.9804%,50.9804%);stop-opacity:1;"/>
<stop offset="0.5" style="stop-color:rgb(65.8824%,65.8824%,65.8824%);stop-opacity:1;"/>
<stop offset="1" style="stop-color:rgb(51.7647%,51.7647%,51.7647%);stop-opacity:1;"/>
</radialGradient>
</defs>
<g id="surface4">
<path style=" stroke:none;fill-rule:nonzero;fill:url(#linear0);" d="M 24.351562 0 C 79.949219 0.300781 487 0 487 0 L 487 317.394531 C 315.113281 317.394531 151.8125 317.394531 0 317.394531 L 0 24.382812 C 0 10.535156 10.859375 0 24.351562 0 Z M 24.351562 0 "/>
<path style="fill-rule:nonzero;fill:rgb(100%,100%,100%);fill-opacity:1;stroke-width:0.875;stroke-linecap:butt;stroke-linejoin:miter;stroke:rgb(90.1961%,90.1961%,90.1961%);stroke-opacity:1;stroke-miterlimit:4;" d="M 0.625 21.226562 L 0.4375 20.933594 L 0.5625 20.679688 C 4.539062 17.992188 7.421875 15.648438 9.214844 13.648438 L 8.125 13.648438 L 7.765625 13.375 C 7.878906 13.121094 8.53125 13.015625 9.71875 13.058594 L 13.375 8.964844 L 15.832031 8.964844 L 12.132812 13.058594 L 14.78125 13.058594 L 15.054688 13.351562 C 15.011719 13.605469 13.90625 13.703125 11.734375 13.648438 C 10.054688 15.507812 8.375 17.371094 6.695312 19.234375 C 3.921875 22.355469 2.515625 24.0625 2.472656 24.355469 L 2.789062 24.546875 C 4.414062 24.628906 6.863281 23.339844 10.140625 20.679688 L 10.328125 20.976562 C 10.316406 21.5625 9.171875 22.445312 6.90625 23.621094 C 4.734375 24.742188 3.265625 25.300781 2.496094 25.300781 C 1.628906 25.300781 1.195312 24.859375 1.195312 23.976562 C 1.195312 22.984375 1.675781 21.925781 2.640625 20.808594 C 3.496094 19.953125 4.351562 19.097656 5.203125 18.246094 C 3.832031 19.199219 2.304688 20.191406 0.625 21.226562 " transform="matrix(1,0,0,1,19,25)"/>
<path style="fill-rule:nonzero;fill:rgb(100%,100%,100%);fill-opacity:1;stroke-width:0.875;stroke-linecap:butt;stroke-linejoin:miter;stroke:rgb(90.1961%,90.1961%,90.1961%);stroke-opacity:1;stroke-miterlimit:4;" d="M 20.707031 13.289062 C 25.003906 10.617188 27.621094 8.941406 28.558594 8.269531 C 32.324219 5.570312 34.210938 3.476562 34.210938 1.992188 C 34.210938 1.320312 33.859375 0.984375 33.160156 0.984375 C 31.5625 0.984375 29.300781 2.664062 26.375 6.023438 C 25.523438 6.988281 23.632812 9.410156 20.707031 13.289062 M 10.183594 21.164062 L 10.015625 20.914062 L 10.082031 20.679688 C 10.570312 20.136719 11.507812 19.449219 12.894531 18.625 C 14.28125 17.785156 15.238281 17.0625 15.769531 16.460938 C 17.183594 14.765625 18.59375 13.078125 19.992188 11.398438 C 22.609375 8.347656 24.921875 5.925781 26.921875 4.132812 C 29.679688 1.667969 31.800781 0.4375 33.285156 0.4375 C 33.691406 0.4375 34.035156 0.597656 34.3125 0.921875 C 34.609375 1.230469 34.753906 1.585938 34.753906 1.992188 C 34.753906 3.449219 33.71875 5.035156 31.648438 6.757812 C 30.316406 7.863281 28.203125 9.273438 25.304688 10.980469 C 22.476562 12.632812 20.777344 13.703125 20.203125 14.191406 C 19.445312 14.863281 18.578125 15.800781 17.597656 17.007812 C 16.800781 18 15.996094 18.996094 15.183594 19.988281 C 18.082031 17.636719 20.257812 16.460938 21.714844 16.460938 C 22.5 16.460938 22.890625 16.914062 22.890625 17.824219 C 22.890625 18.863281 22.183594 20.140625 20.769531 21.667969 C 19.355469 23.195312 18.640625 24.078125 18.628906 24.316406 L 19.003906 24.546875 C 19.929688 24.585938 21.34375 23.964844 23.246094 22.675781 C 25.152344 21.375 26.167969 20.714844 26.292969 20.703125 L 26.417969 20.914062 C 26.375 21.445312 25.214844 22.320312 22.933594 23.539062 C 20.707031 24.714844 19.25 25.300781 18.5625 25.300781 C 17.695312 25.300781 17.261719 24.8125 17.261719 23.832031 C 17.261719 22.933594 18.003906 21.660156 19.488281 20.007812 C 20.984375 18.359375 21.742188 17.453125 21.757812 17.300781 L 21.523438 17.007812 C 19.3125 16.9375 15.722656 19.6875 10.753906 25.257812 L 8.148438 25.257812 L 14.050781 18.75 C 12.972656 19.535156 11.683594 20.339844 10.183594 21.164062 " transform="matrix(1,0,0,1,19,25)"/>
<path style="fill-rule:nonzero;fill:rgb(100%,100%,100%);fill-opacity:1;stroke-width:0.875;stroke-linecap:butt;stroke-linejoin:miter;stroke:rgb(90.1961%,90.1961%,90.1961%);stroke-opacity:1;stroke-miterlimit:4;" d="M 35.671875 20.640625 L 35.882812 20.976562 L 35.800781 21.183594 C 31.976562 23.945312 29.339844 25.324219 27.882812 25.324219 C 26.046875 25.324219 25.132812 24.617188 25.132812 23.203125 C 25.132812 21.691406 26.089844 20.164062 28.007812 18.625 C 29.84375 17.152344 31.527344 16.417969 33.070312 16.417969 C 33.953125 16.417969 34.390625 16.78125 34.390625 17.511719 C 34.390625 18.351562 33.71875 19.09375 32.375 19.738281 C 31.128906 20.269531 29.882812 20.808594 28.636719 21.351562 C 27.292969 22.054688 26.621094 22.90625 26.621094 23.914062 C 26.621094 24.417969 26.9375 24.671875 27.566406 24.671875 C 28.898438 24.671875 30.570312 24 32.585938 22.65625 C 34.617188 21.3125 35.644531 20.640625 35.671875 20.640625 M 29.039062 20.34375 C 32.1875 19.308594 33.761719 18.371094 33.761719 17.53125 C 33.761719 17.210938 33.609375 17.046875 33.300781 17.046875 C 32.222656 17.046875 30.800781 18.148438 29.039062 20.34375 " transform="matrix(1,0,0,1,19,25)"/>
<path style="fill-rule:nonzero;fill:rgb(100%,100%,100%);fill-opacity:1;stroke-width:0.875;stroke-linecap:butt;stroke-linejoin:miter;stroke:rgb(90.1961%,90.1961%,90.1961%);stroke-opacity:1;stroke-miterlimit:4;" d="M 55.46875 11.589844 C 55.273438 12.078125 54.816406 12.554688 54.101562 13.015625 C 53.585938 12.667969 53.171875 12.21875 52.863281 11.671875 C 53.128906 11.085938 53.558594 10.628906 54.144531 10.308594 C 54.578125 10.515625 55.019531 10.945312 55.46875 11.589844 M 51.035156 16.460938 C 49.820312 17.804688 48.601562 19.15625 47.382812 20.511719 C 45.394531 22.753906 44.386719 24.019531 44.359375 24.316406 L 44.714844 24.546875 C 45.613281 24.585938 47.011719 23.964844 48.914062 22.675781 C 50.890625 21.347656 51.90625 20.679688 51.960938 20.679688 L 52.148438 20.976562 C 52.121094 21.480469 50.953125 22.332031 48.644531 23.539062 C 46.417969 24.714844 44.960938 25.300781 44.273438 25.300781 C 43.421875 25.300781 42.992188 24.847656 42.992188 23.9375 C 42.992188 23.238281 43.265625 22.488281 43.8125 21.691406 C 43.855469 21.632812 44.359375 21.003906 45.324219 19.800781 C 44.738281 20.234375 43.972656 20.703125 43.035156 21.207031 L 42.804688 20.933594 L 42.953125 20.679688 C 45.289062 19.128906 47.195312 17.71875 48.664062 16.460938 L 51.035156 16.460938 " transform="matrix(1,0,0,1,19,25)"/>
<path style="fill-rule:nonzero;fill:rgb(100%,100%,100%);fill-opacity:1;stroke-width:0.875;stroke-linecap:butt;stroke-linejoin:miter;stroke:rgb(90.1961%,90.1961%,90.1961%);stroke-opacity:1;stroke-miterlimit:4;" d="M 58.992188 17.238281 L 58.761719 17.046875 C 57.910156 17.035156 55.640625 18.414062 51.960938 21.183594 L 51.726562 20.933594 L 51.832031 20.722656 C 52.882812 19.800781 54.039062 18.929688 55.296875 18.121094 C 57.007812 17.027344 58.273438 16.480469 59.097656 16.480469 C 59.800781 16.480469 60.148438 16.851562 60.148438 17.59375 C 60.148438 18.265625 59.867188 19.066406 59.308594 19.988281 C 62.261719 17.636719 64.445312 16.460938 65.859375 16.460938 C 66.632812 16.460938 67.015625 16.914062 67.015625 17.824219 C 67.015625 18.917969 66.308594 20.210938 64.894531 21.710938 C 63.480469 23.195312 62.773438 24.046875 62.773438 24.273438 C 62.773438 24.453125 62.898438 24.546875 63.152344 24.546875 C 64.160156 24.546875 65.609375 23.910156 67.5 22.632812 C 69.402344 21.359375 70.382812 20.714844 70.4375 20.703125 L 70.566406 20.914062 C 70.566406 21.5 69.425781 22.390625 67.140625 23.578125 C 64.945312 24.726562 63.472656 25.300781 62.730469 25.300781 C 61.863281 25.300781 61.429688 24.8125 61.429688 23.832031 C 61.429688 22.976562 62.058594 21.789062 63.320312 20.261719 C 64.300781 19.210938 65.273438 18.15625 66.238281 17.089844 C 66 17.019531 65.292969 16.984375 64.117188 16.984375 C 62.957031 16.984375 59.875 19.742188 54.878906 25.257812 L 52.503906 25.257812 C 54.632812 22.753906 56.796875 20.078125 58.992188 17.238281 " transform="matrix(1,0,0,1,19,25)"/>
<path style="fill-rule:nonzero;fill:rgb(100%,100%,100%);fill-opacity:1;stroke-width:0.875;stroke-linecap:butt;stroke-linejoin:miter;stroke:rgb(90.1961%,90.1961%,90.1961%);stroke-opacity:1;stroke-miterlimit:4;" d="M 71.847656 22.003906 L 72.980469 20.679688 L 72.792969 20.113281 L 71.847656 22.003906 M 73.527344 20.15625 L 75.226562 18.289062 C 74.847656 18.46875 74.476562 18.660156 74.113281 18.855469 C 73.667969 19.132812 73.441406 19.457031 73.441406 19.820312 L 73.527344 20.15625 M 81.738281 13.289062 C 83.894531 12.335938 86.46875 10.820312 89.464844 8.734375 C 93.230469 6.113281 95.113281 4.148438 95.113281 2.832031 C 95.113281 2.105469 94.785156 1.738281 94.128906 1.738281 C 92.574219 1.738281 90.339844 3.308594 87.429688 6.445312 C 86.351562 7.589844 84.453125 9.875 81.738281 13.289062 M 79.46875 20.679688 L 79.65625 20.953125 L 79.554688 21.183594 C 78.109375 22.152344 76.816406 22.632812 75.667969 22.632812 C 75.191406 22.632812 74.695312 22.488281 74.175781 22.195312 L 62.3125 36.03125 L 59.9375 36.03125 C 62.136719 33.441406 64.335938 30.84375 66.53125 28.242188 C 68.953125 25.246094 70.859375 22.460938 72.246094 19.882812 C 71.683594 20.304688 70.972656 20.773438 70.101562 21.289062 L 69.851562 20.996094 L 69.976562 20.765625 C 71.125 19.980469 72.035156 19.386719 72.707031 18.980469 C 73.15625 17.257812 73.804688 16.398438 74.660156 16.398438 C 74.855469 16.398438 75.023438 16.503906 75.164062 16.710938 C 75.316406 16.910156 75.382812 17.097656 75.351562 17.28125 C 75.898438 16.914062 76.675781 16.320312 77.683594 15.496094 C 80.300781 12.695312 82.925781 9.894531 85.558594 7.09375 C 89.492188 3.132812 92.382812 1.152344 94.230469 1.152344 C 94.609375 1.152344 94.953125 1.285156 95.261719 1.550781 C 95.570312 1.800781 95.722656 2.125 95.722656 2.515625 C 95.722656 4.308594 93.707031 6.554688 89.675781 9.257812 C 89.03125 9.675781 86.160156 11.34375 81.066406 14.253906 C 80.601562 14.507812 78.46875 16.984375 74.660156 21.691406 C 75.039062 21.941406 75.410156 22.066406 75.773438 22.066406 C 76.460938 22.066406 77.199219 21.851562 78 21.417969 C 78.851562 20.941406 79.34375 20.695312 79.46875 20.679688 " transform="matrix(1,0,0,1,19,25)"/>
<path style="fill-rule:nonzero;fill:rgb(100%,100%,100%);fill-opacity:1;stroke-width:0.875;stroke-linecap:butt;stroke-linejoin:miter;stroke:rgb(90.1961%,90.1961%,90.1961%);stroke-opacity:1;stroke-miterlimit:4;" d="M 80.71875 24.753906 C 81.976562 24.753906 83.636719 23.972656 85.695312 22.402344 C 87.824219 20.765625 88.886719 19.34375 88.886719 18.140625 C 88.886719 17.425781 88.480469 17.070312 87.667969 17.070312 C 86.660156 17.070312 85.097656 17.980469 82.984375 19.800781 C 80.871094 21.621094 79.816406 23.019531 79.816406 24 C 79.816406 24.503906 80.117188 24.753906 80.71875 24.753906 M 78.660156 23.136719 C 78.660156 21.515625 79.730469 19.96875 81.871094 18.496094 C 83.847656 17.140625 85.6875 16.460938 87.394531 16.460938 C 88.808594 16.460938 89.515625 17 89.515625 18.078125 C 89.515625 18.328125 89.46875 18.617188 89.371094 18.9375 C 89.71875 18.589844 90.453125 17.761719 91.574219 16.460938 L 93.988281 16.460938 C 92.757812 17.804688 91.527344 19.148438 90.292969 20.492188 C 88.304688 22.71875 87.296875 23.992188 87.269531 24.316406 L 87.605469 24.585938 C 88.320312 24.617188 89.574219 23.984375 91.363281 22.699219 C 93.171875 21.394531 94.101562 20.738281 94.15625 20.722656 L 94.410156 21.039062 C 94.394531 21.515625 93.332031 22.347656 91.21875 23.539062 C 89.160156 24.714844 87.824219 25.300781 87.207031 25.300781 C 86.367188 25.300781 85.945312 24.851562 85.945312 23.957031 C 85.945312 23.578125 86.007812 23.214844 86.136719 22.867188 C 84.0625 24.503906 82.3125 25.324219 80.886719 25.324219 C 79.402344 25.324219 78.660156 24.59375 78.660156 23.136719 " transform="matrix(1,0,0,1,19,25)"/>
<path style="fill-rule:nonzero;fill:rgb(100%,100%,100%);fill-opacity:1;stroke-width:0.875;stroke-linecap:butt;stroke-linejoin:miter;stroke:rgb(90.1961%,90.1961%,90.1961%);stroke-opacity:1;stroke-miterlimit:4;" d="M 112.242188 24.316406 L 112.597656 24.546875 C 113.550781 24.585938 114.972656 23.972656 116.859375 22.699219 C 118.808594 21.382812 119.816406 20.714844 119.886719 20.703125 L 120.011719 20.914062 C 120.011719 21.527344 118.878906 22.425781 116.609375 23.601562 C 114.4375 24.734375 112.960938 25.300781 112.179688 25.300781 C 111.296875 25.300781 110.855469 24.8125 110.855469 23.832031 C 110.855469 22.976562 111.492188 21.789062 112.765625 20.261719 C 113.746094 19.210938 114.71875 18.15625 115.683594 17.089844 C 115.433594 17.019531 114.710938 16.984375 113.523438 16.984375 C 112.332031 16.984375 109.28125 19.742188 104.367188 25.257812 L 101.910156 25.257812 L 108.691406 17.089844 C 108.425781 17.007812 107.710938 16.964844 106.550781 16.964844 C 105.402344 16.964844 102.316406 19.730469 97.289062 25.257812 L 94.917969 25.257812 C 97.03125 22.753906 99.199219 20.078125 101.425781 17.238281 L 101.132812 17.046875 C 100.445312 17.035156 99.179688 17.691406 97.332031 19.023438 C 95.386719 20.421875 94.363281 21.136719 94.265625 21.164062 L 94.078125 20.933594 C 94.105469 20.414062 95.183594 19.535156 97.308594 18.289062 C 99.382812 17.070312 100.746094 16.460938 101.40625 16.460938 C 101.699219 16.460938 101.964844 16.578125 102.203125 16.816406 C 102.441406 17.054688 102.558594 17.320312 102.558594 17.617188 C 102.558594 18.203125 102.28125 18.996094 101.71875 19.988281 C 104.6875 17.636719 106.894531 16.460938 108.335938 16.460938 C 109.089844 16.460938 109.46875 16.914062 109.46875 17.824219 C 109.46875 18.527344 109.230469 19.246094 108.753906 19.988281 C 111.652344 17.636719 113.835938 16.460938 115.308594 16.460938 C 116.105469 16.460938 116.503906 16.914062 116.503906 17.824219 C 116.503906 18.863281 115.789062 20.140625 114.363281 21.667969 C 112.949219 23.195312 112.242188 24.078125 112.242188 24.316406 " transform="matrix(1,0,0,1,19,25)"/>
<path style="fill-rule:nonzero;fill:rgb(100%,100%,100%);fill-opacity:1;stroke-width:0.875;stroke-linecap:butt;stroke-linejoin:miter;stroke:rgb(90.1961%,90.1961%,90.1961%);stroke-opacity:1;stroke-miterlimit:4;" d="M 130.761719 20.535156 L 130.972656 20.808594 L 130.847656 21.039062 C 130.019531 21.585938 128.867188 21.859375 127.382812 21.859375 C 124.832031 24.179688 122.710938 25.34375 121.019531 25.34375 C 119.480469 25.34375 118.707031 24.609375 118.707031 23.136719 C 118.707031 21.527344 119.78125 19.980469 121.921875 18.496094 C 123.910156 17.140625 125.742188 16.460938 127.425781 16.460938 C 127.957031 16.460938 128.425781 16.585938 128.832031 16.839844 C 129.320312 17.148438 129.566406 17.550781 129.566406 18.054688 C 129.566406 18.910156 129.035156 19.96875 127.96875 21.226562 C 128.363281 21.242188 128.851562 21.136719 129.441406 20.914062 C 130.042969 20.6875 130.484375 20.5625 130.761719 20.535156 M 120.765625 24.753906 C 122.039062 24.753906 123.699219 23.972656 125.742188 22.402344 C 127.886719 20.765625 128.957031 19.34375 128.957031 18.140625 C 128.957031 17.425781 128.542969 17.070312 127.71875 17.070312 C 126.710938 17.070312 125.148438 17.980469 123.035156 19.800781 C 120.921875 21.621094 119.863281 23.019531 119.863281 24 C 119.863281 24.503906 120.164062 24.753906 120.765625 24.753906 " transform="matrix(1,0,0,1,19,25)"/>
<path style="fill-rule:nonzero;fill:rgb(100%,100%,100%);fill-opacity:1;stroke-width:0.875;stroke-linecap:butt;stroke-linejoin:miter;stroke:rgb(90.1961%,90.1961%,90.1961%);stroke-opacity:1;stroke-miterlimit:4;" d="M 130.6875 21.207031 L 130.433594 20.890625 C 130.464844 20.765625 131.273438 20.140625 132.871094 19.023438 C 134.578125 17.789062 135.636719 16.9375 136.042969 16.460938 L 138.835938 16.460938 C 137.601562 17.820312 136.371094 19.183594 135.140625 20.554688 C 133.125 22.824219 132.101562 24.097656 132.074219 24.378906 L 132.367188 24.566406 C 134.355469 24.664062 137.800781 21.960938 142.699219 16.460938 L 145.535156 16.460938 C 144.300781 17.820312 143.070312 19.175781 141.839844 20.535156 C 139.808594 22.800781 138.792969 24.070312 138.792969 24.335938 C 138.792969 24.53125 138.941406 24.628906 139.234375 24.628906 C 140.941406 24.628906 143.320312 23.304688 146.375 20.660156 L 146.519531 20.933594 L 146.457031 21.121094 C 143.449219 23.910156 140.886719 25.300781 138.773438 25.300781 C 137.902344 25.300781 137.46875 24.886719 137.46875 24.0625 C 137.46875 23.445312 137.742188 22.667969 138.289062 21.730469 C 135.277344 24.167969 133.09375 25.386719 131.738281 25.386719 C 130.953125 25.386719 130.5625 24.929688 130.5625 24.019531 C 130.5625 23.277344 131.464844 21.792969 133.269531 19.570312 C 132.554688 20.085938 131.695312 20.632812 130.6875 21.207031 " transform="matrix(1,0,0,1,19,25)"/>
<path style="fill-rule:nonzero;fill:rgb(100%,100%,100%);fill-opacity:1;stroke-width:0.875;stroke-linecap:butt;stroke-linejoin:miter;stroke:rgb(90.1961%,90.1961%,90.1961%);stroke-opacity:1;stroke-miterlimit:4;" d="M 153.414062 21.960938 C 153.957031 21.863281 154.917969 21.4375 156.289062 20.679688 L 156.519531 20.953125 C 156.519531 21.304688 156.003906 21.675781 154.96875 22.066406 C 154.070312 22.417969 153.386719 22.605469 152.910156 22.632812 C 150.824219 24.484375 148.941406 25.40625 147.261719 25.40625 C 145.914062 25.40625 145.242188 24.875 145.242188 23.808594 C 145.242188 22.703125 145.707031 22.152344 146.628906 22.152344 C 147.230469 22.152344 147.53125 22.410156 147.53125 22.929688 C 147.53125 23.808594 147.015625 24.238281 145.980469 24.210938 C 146.007812 24.601562 146.320312 24.796875 146.925781 24.796875 C 149.332031 24.796875 151.402344 22.058594 153.140625 16.585938 C 152.664062 16.921875 150.425781 18.46875 146.421875 21.226562 L 146.125 20.847656 C 146.183594 20.738281 147.714844 19.609375 150.726562 17.46875 C 153.734375 15.328125 155.371094 14.21875 155.640625 14.152344 L 155.953125 14.507812 C 155.519531 14.859375 154.867188 15.382812 154 16.082031 C 153.957031 16.320312 153.9375 16.628906 153.9375 17.007812 C 153.9375 17.257812 153.972656 17.628906 154.042969 18.121094 C 154.128906 18.609375 154.167969 18.980469 154.167969 19.234375 C 154.167969 20.226562 153.917969 21.136719 153.414062 21.960938 " transform="matrix(1,0,0,1,19,25)"/>
<path style="fill-rule:nonzero;fill:rgb(100%,100%,100%);fill-opacity:1;stroke-width:0.875;stroke-linecap:butt;stroke-linejoin:miter;stroke:rgb(90.1961%,90.1961%,90.1961%);stroke-opacity:1;stroke-miterlimit:4;" d="M 176.152344 10.664062 L 168.800781 19.839844 C 171.589844 17.585938 173.75 16.460938 175.292969 16.460938 C 176.117188 16.460938 176.53125 16.914062 176.53125 17.824219 C 176.53125 18.917969 175.816406 20.21875 174.390625 21.730469 C 172.960938 23.230469 172.246094 24.082031 172.246094 24.292969 C 172.246094 24.460938 172.371094 24.546875 172.625 24.546875 C 173.703125 24.546875 175.152344 23.921875 176.972656 22.675781 C 178.875 21.359375 179.847656 20.703125 179.890625 20.703125 L 180.039062 20.914062 C 180.023438 21.488281 178.875 22.375 176.59375 23.578125 C 174.394531 24.726562 172.925781 25.300781 172.183594 25.300781 C 171.316406 25.300781 170.882812 24.8125 170.882812 23.832031 C 170.882812 22.976562 171.519531 21.789062 172.792969 20.261719 C 173.757812 19.210938 174.726562 18.15625 175.691406 17.089844 C 175.453125 17.019531 175.101562 16.984375 174.640625 16.984375 C 174.191406 16.984375 172.988281 17.644531 171.027344 18.960938 C 169.238281 20.164062 167.960938 21.207031 167.207031 22.089844 L 154.566406 37.144531 L 152.109375 37.144531 L 166.933594 19.210938 C 166.109375 19.828125 165.105469 20.484375 163.929688 21.183594 L 163.65625 20.933594 L 163.785156 20.722656 C 165.535156 19.574219 167.4375 17.992188 169.496094 15.976562 C 171.230469 14.214844 172.96875 12.441406 174.703125 10.664062 L 176.152344 10.664062 " transform="matrix(1,0,0,1,19,25)"/>
<path style="fill-rule:nonzero;fill:rgb(100%,100%,100%);fill-opacity:1;stroke-width:0.875;stroke-linecap:butt;stroke-linejoin:miter;stroke:rgb(90.1961%,90.1961%,90.1961%);stroke-opacity:1;stroke-miterlimit:4;" d="M 191.015625 20.535156 L 191.226562 20.808594 L 191.097656 21.039062 C 190.273438 21.585938 189.117188 21.859375 187.632812 21.859375 C 185.085938 24.179688 182.964844 25.34375 181.269531 25.34375 C 179.730469 25.34375 178.960938 24.609375 178.960938 23.136719 C 178.960938 21.527344 180.03125 19.980469 182.171875 18.496094 C 184.160156 17.140625 185.996094 16.460938 187.675781 16.460938 C 188.207031 16.460938 188.675781 16.585938 189.082031 16.839844 C 189.574219 17.148438 189.816406 17.550781 189.816406 18.054688 C 189.816406 18.910156 189.285156 19.96875 188.222656 21.226562 C 188.613281 21.242188 189.105469 21.136719 189.691406 20.914062 C 190.292969 20.6875 190.734375 20.5625 191.015625 20.535156 M 181.019531 24.753906 C 182.292969 24.753906 183.953125 23.972656 185.996094 22.402344 C 188.136719 20.765625 189.207031 19.34375 189.207031 18.140625 C 189.207031 17.425781 188.796875 17.070312 187.96875 17.070312 C 186.960938 17.070312 185.402344 17.980469 183.285156 19.800781 C 181.171875 21.621094 180.117188 23.019531 180.117188 24 C 180.117188 24.503906 180.417969 24.753906 181.019531 24.753906 " transform="matrix(1,0,0,1,19,25)"/>
<path style="fill-rule:nonzero;fill:rgb(100%,100%,100%);fill-opacity:1;stroke-width:0.875;stroke-linecap:butt;stroke-linejoin:miter;stroke:rgb(90.1961%,90.1961%,90.1961%);stroke-opacity:1;stroke-miterlimit:4;" d="M 199.484375 22.003906 C 198.589844 22.691406 197.695312 23.375 196.796875 24.0625 C 195.609375 24.859375 194.601562 25.257812 193.773438 25.257812 C 193.339844 25.257812 192.960938 25.078125 192.640625 24.714844 C 192.304688 24.335938 192.136719 23.921875 192.136719 23.472656 C 192.136719 22.578125 192.90625 21.347656 194.445312 19.777344 C 195.984375 18.195312 196.761719 17.34375 196.777344 17.214844 L 196.484375 17.007812 C 195.894531 16.976562 194.851562 17.679688 193.355469 19.105469 C 191.84375 20.535156 191.050781 21.25 190.980469 21.25 L 190.707031 21.039062 C 190.722656 20.535156 191.582031 19.644531 193.289062 18.371094 C 195 17.097656 196.140625 16.460938 196.714844 16.460938 C 197.511719 16.460938 197.910156 16.964844 197.910156 17.972656 C 197.910156 18.757812 197.167969 19.960938 195.683594 21.585938 C 194.199219 23.207031 193.460938 24.140625 193.460938 24.378906 C 193.460938 24.574219 193.613281 24.671875 193.921875 24.671875 C 195.796875 24.671875 199.171875 21.933594 204.042969 16.460938 L 206.835938 16.460938 C 205.632812 17.789062 204.429688 19.121094 203.222656 20.449219 C 201.265625 22.675781 200.285156 23.929688 200.285156 24.210938 C 200.285156 24.488281 200.578125 24.628906 201.164062 24.628906 C 201.964844 24.628906 203.078125 24.179688 204.503906 23.285156 C 205.625 22.597656 206.632812 21.851562 207.527344 21.039062 C 207.460938 20.757812 207.425781 20.4375 207.425781 20.074219 C 207.425781 19.707031 207.835938 19.023438 208.664062 18.015625 C 209.515625 16.949219 210.292969 16.417969 210.992188 16.417969 C 211.359375 16.417969 211.539062 16.601562 211.539062 16.964844 C 211.539062 18.054688 210.503906 19.441406 208.433594 21.121094 C 208.65625 21.304688 208.914062 21.394531 209.210938 21.394531 C 210.078125 21.394531 210.980469 21.085938 211.917969 20.472656 L 212.128906 20.765625 L 212.003906 21.039062 C 211.105469 21.683594 210.167969 22.003906 209.1875 22.003906 C 208.738281 22.003906 208.332031 21.851562 207.96875 21.542969 C 205.015625 24.007812 202.753906 25.238281 201.1875 25.238281 C 200.683594 25.238281 200.214844 25.113281 199.78125 24.859375 C 199.277344 24.566406 199.023438 24.179688 199.023438 23.707031 C 199.023438 23.328125 199.179688 22.761719 199.484375 22.003906 " transform="matrix(1,0,0,1,19,25)"/>
<path style="fill-rule:nonzero;fill:rgb(100%,100%,100%);fill-opacity:1;stroke-width:0.875;stroke-linecap:butt;stroke-linejoin:miter;stroke:rgb(90.1961%,90.1961%,90.1961%);stroke-opacity:1;stroke-miterlimit:4;" d="M 221.226562 20.640625 L 221.4375 20.976562 L 221.355469 21.183594 C 217.53125 23.945312 214.894531 25.324219 213.4375 25.324219 C 211.601562 25.324219 210.6875 24.617188 210.6875 23.203125 C 210.6875 21.691406 211.644531 20.164062 213.5625 18.625 C 215.398438 17.152344 217.082031 16.417969 218.625 16.417969 C 219.507812 16.417969 219.945312 16.78125 219.945312 17.511719 C 219.945312 18.351562 219.273438 19.09375 217.929688 19.738281 C 216.683594 20.269531 215.4375 20.808594 214.191406 21.351562 C 212.847656 22.054688 212.175781 22.90625 212.175781 23.914062 C 212.175781 24.417969 212.492188 24.671875 213.121094 24.671875 C 214.453125 24.671875 216.125 24 218.140625 22.65625 C 220.171875 21.3125 221.199219 20.640625 221.226562 20.640625 M 214.59375 20.34375 C 217.742188 19.308594 219.316406 18.371094 219.316406 17.53125 C 219.316406 17.210938 219.164062 17.046875 218.855469 17.046875 C 217.777344 17.046875 216.355469 18.148438 214.59375 20.34375 " transform="matrix(1,0,0,1,19,25)"/>
<path style="fill-rule:nonzero;fill:rgb(100%,100%,100%);fill-opacity:1;stroke-width:0.875;stroke-linecap:butt;stroke-linejoin:miter;stroke:rgb(90.1961%,90.1961%,90.1961%);stroke-opacity:1;stroke-miterlimit:4;" d="M 221 20.722656 C 222.761719 19.253906 224.058594 18.089844 224.882812 17.238281 C 224.367188 17.070312 224.109375 16.742188 224.109375 16.25 C 224.109375 15.410156 224.542969 14.992188 225.410156 14.992188 C 225.96875 14.992188 226.25 15.277344 226.25 15.851562 C 226.25 16.1875 226.117188 16.460938 225.851562 16.671875 C 226.691406 16.671875 227.445312 16.566406 228.117188 16.355469 L 228.9375 18.015625 C 227.945312 19.078125 226.949219 20.140625 225.957031 21.207031 C 224.359375 22.957031 223.5625 23.964844 223.5625 24.230469 C 223.5625 24.425781 223.703125 24.523438 223.980469 24.523438 C 225.492188 24.523438 227.859375 23.242188 231.078125 20.679688 L 231.332031 21.015625 C 231.316406 21.480469 230.148438 22.320312 227.824219 23.539062 C 225.570312 24.714844 224.113281 25.300781 223.457031 25.300781 C 222.574219 25.300781 222.132812 24.777344 222.132812 23.726562 C 222.132812 22.886719 222.828125 21.691406 224.210938 20.136719 C 225.164062 19.167969 226.117188 18.203125 227.070312 17.238281 C 226.578125 17.320312 226.125 17.347656 225.703125 17.320312 C 223.140625 19.882812 221.621094 21.179688 221.148438 21.207031 L 220.914062 20.914062 L 221 20.722656 " transform="matrix(1,0,0,1,19,25)"/>
<path style="fill-rule:nonzero;fill:rgb(100%,100%,100%);fill-opacity:1;stroke-width:0.875;stroke-linecap:butt;stroke-linejoin:miter;stroke:rgb(90.1961%,90.1961%,90.1961%);stroke-opacity:1;stroke-miterlimit:4;" d="M 240.027344 24.714844 C 241.289062 24.714844 242.96875 24.046875 245.070312 22.71875 C 247.238281 21.359375 248.332031 20.679688 248.34375 20.679688 L 248.597656 21.039062 C 248.582031 21.597656 247.261719 22.464844 244.628906 23.640625 C 242.082031 24.761719 240.40625 25.324219 239.609375 25.324219 C 238.320312 25.324219 237.675781 24.59375 237.675781 23.136719 C 237.675781 21.613281 238.644531 20.109375 240.574219 18.625 C 242.394531 17.210938 244.089844 16.503906 245.65625 16.503906 C 246.960938 16.503906 247.609375 16.9375 247.609375 17.804688 C 247.609375 18.222656 247.457031 18.589844 247.148438 18.898438 C 246.839844 19.203125 246.484375 19.359375 246.078125 19.359375 C 245.460938 19.359375 245.152344 19.09375 245.152344 18.558594 C 245.152344 17.859375 245.546875 17.511719 246.328125 17.511719 C 246.523438 17.511719 246.742188 17.585938 246.980469 17.742188 C 246.714844 17.308594 246.355469 17.089844 245.910156 17.089844 C 244.816406 17.089844 243.367188 17.972656 241.5625 19.738281 C 239.742188 21.488281 238.832031 22.90625 238.832031 24 C 238.832031 24.476562 239.230469 24.714844 240.027344 24.714844 " transform="matrix(1,0,0,1,19,25)"/>
<path style="fill-rule:nonzero;fill:rgb(100%,100%,100%);fill-opacity:1;stroke-width:0.875;stroke-linecap:butt;stroke-linejoin:miter;stroke:rgb(90.1961%,90.1961%,90.1961%);stroke-opacity:1;stroke-miterlimit:4;" d="M 248.320312 21.207031 L 248.066406 20.890625 C 248.097656 20.765625 248.90625 20.140625 250.503906 19.023438 C 252.210938 17.789062 253.269531 16.9375 253.675781 16.460938 L 256.46875 16.460938 C 255.234375 17.820312 254.003906 19.183594 252.773438 20.554688 C 250.757812 22.824219 249.734375 24.097656 249.707031 24.378906 L 250 24.566406 C 251.988281 24.664062 255.433594 21.960938 260.332031 16.460938 L 263.167969 16.460938 C 261.933594 17.820312 260.703125 19.175781 259.472656 20.535156 C 257.441406 22.800781 256.425781 24.070312 256.425781 24.335938 C 256.425781 24.53125 256.574219 24.628906 256.867188 24.628906 C 258.574219 24.628906 260.953125 23.304688 264.007812 20.660156 L 264.152344 20.933594 L 264.089844 21.121094 C 261.082031 23.910156 258.519531 25.300781 256.40625 25.300781 C 255.535156 25.300781 255.101562 24.886719 255.101562 24.0625 C 255.101562 23.445312 255.375 22.667969 255.921875 21.730469 C 252.910156 24.167969 250.726562 25.386719 249.371094 25.386719 C 248.585938 25.386719 248.195312 24.929688 248.195312 24.019531 C 248.195312 23.277344 249.097656 21.792969 250.902344 19.570312 C 250.1875 20.085938 249.328125 20.632812 248.320312 21.207031 " transform="matrix(1,0,0,1,19,25)"/>
<path style="fill-rule:nonzero;fill:rgb(100%,100%,100%);fill-opacity:1;stroke-width:0.875;stroke-linecap:butt;stroke-linejoin:miter;stroke:rgb(90.1961%,90.1961%,90.1961%);stroke-opacity:1;stroke-miterlimit:4;" d="M 263.90625 21.226562 L 263.714844 20.933594 L 263.84375 20.679688 C 267.820312 17.992188 270.703125 15.648438 272.496094 13.648438 L 271.402344 13.648438 L 271.046875 13.375 C 271.15625 13.121094 271.808594 13.015625 273 13.058594 L 276.652344 8.964844 L 279.109375 8.964844 L 275.414062 13.058594 L 278.058594 13.058594 L 278.332031 13.351562 C 278.289062 13.605469 277.183594 13.703125 275.015625 13.648438 C 273.335938 15.507812 271.65625 17.371094 269.976562 19.234375 C 267.203125 22.355469 265.796875 24.0625 265.753906 24.355469 L 266.070312 24.546875 C 267.691406 24.628906 270.144531 23.339844 273.417969 20.679688 L 273.609375 20.976562 C 273.59375 21.5625 272.453125 22.445312 270.183594 23.621094 C 268.015625 24.742188 266.542969 25.300781 265.773438 25.300781 C 264.90625 25.300781 264.472656 24.859375 264.472656 23.976562 C 264.472656 22.984375 264.957031 21.925781 265.921875 20.808594 C 266.777344 19.953125 267.628906 19.097656 268.484375 18.246094 C 267.113281 19.199219 265.585938 20.191406 263.90625 21.226562 " transform="matrix(1,0,0,1,19,25)"/>
<path style="fill-rule:nonzero;fill:rgb(100%,100%,100%);fill-opacity:1;stroke-width:0.875;stroke-linecap:butt;stroke-linejoin:miter;stroke:rgb(90.1961%,90.1961%,90.1961%);stroke-opacity:1;stroke-miterlimit:4;" d="M 0.4375 17.214844 C 0.4375 15.84375 1.355469 14.527344 3.191406 13.253906 C 4.871094 12.078125 6.425781 11.488281 7.851562 11.488281 C 8.921875 11.488281 9.527344 11.867188 9.671875 12.625 L 20.238281 0.4375 L 22.648438 0.4375 C 19.914062 3.558594 17.175781 6.683594 14.441406 9.816406 C 9.871094 15.070312 7.53125 17.875 7.421875 18.222656 L 7.746094 18.417969 C 8.5625 18.457031 9.765625 17.925781 11.363281 16.835938 C 13.019531 15.71875 13.894531 15.15625 13.992188 15.144531 L 14.082031 15.324219 C 14.046875 15.78125 13.050781 16.523438 11.09375 17.554688 C 9.199219 18.5625 7.957031 19.066406 7.367188 19.066406 C 6.683594 19.066406 6.339844 18.792969 6.339844 18.238281 C 6.339844 17.941406 6.4375 17.585938 6.628906 17.175781 C 4.890625 18.460938 3.40625 19.101562 2.183594 19.101562 C 1.019531 19.101562 0.4375 18.472656 0.4375 17.214844 M 2.203125 18.597656 C 3.292969 18.597656 4.714844 17.925781 6.46875 16.582031 C 8.304688 15.179688 9.222656 13.960938 9.222656 12.929688 C 9.222656 12.316406 8.867188 12.011719 8.160156 12.011719 C 7.296875 12.011719 5.957031 12.792969 4.144531 14.351562 C 2.332031 15.910156 1.425781 17.113281 1.425781 17.953125 C 1.425781 18.382812 1.683594 18.597656 2.203125 18.597656 " transform="matrix(1,0,0,1,32,175)"/>
<path style="fill-rule:nonzero;fill:rgb(100%,100%,100%);fill-opacity:1;stroke-width:0.875;stroke-linecap:butt;stroke-linejoin:miter;stroke:rgb(90.1961%,90.1961%,90.1961%);stroke-opacity:1;stroke-miterlimit:4;" d="M 22.113281 15.070312 L 22.292969 15.359375 L 22.21875 15.539062 C 18.945312 17.902344 16.683594 19.085938 15.433594 19.085938 C 13.863281 19.085938 13.074219 18.480469 13.074219 17.265625 C 13.074219 15.972656 13.898438 14.664062 15.542969 13.34375 C 17.113281 12.082031 18.558594 11.453125 19.878906 11.453125 C 20.636719 11.453125 21.015625 11.765625 21.015625 12.390625 C 21.015625 13.109375 20.4375 13.746094 19.285156 14.296875 C 18.21875 14.753906 17.148438 15.214844 16.082031 15.683594 C 14.929688 16.285156 14.355469 17.015625 14.355469 17.878906 C 14.355469 18.3125 14.625 18.527344 15.164062 18.527344 C 16.304688 18.527344 17.738281 17.953125 19.464844 16.800781 C 21.207031 15.648438 22.085938 15.070312 22.113281 15.070312 M 16.421875 14.820312 C 19.125 13.929688 20.472656 13.128906 20.472656 12.40625 C 20.472656 12.132812 20.339844 11.992188 20.078125 11.992188 C 19.152344 11.992188 17.9375 12.933594 16.421875 14.820312 " transform="matrix(1,0,0,1,32,175)"/>
<path style="fill-rule:nonzero;fill:rgb(100%,100%,100%);fill-opacity:1;stroke-width:0.875;stroke-linecap:butt;stroke-linejoin:miter;stroke:rgb(90.1961%,90.1961%,90.1961%);stroke-opacity:1;stroke-miterlimit:4;" d="M 23.355469 18.5625 C 24.4375 18.5625 25.875 17.992188 27.675781 16.851562 C 29.535156 15.691406 30.472656 15.109375 30.484375 15.109375 L 30.699219 15.414062 C 30.6875 15.894531 29.554688 16.636719 27.296875 17.644531 C 25.113281 18.605469 23.679688 19.085938 22.996094 19.085938 C 21.890625 19.085938 21.339844 18.460938 21.339844 17.214844 C 21.339844 15.90625 22.167969 14.617188 23.824219 13.34375 C 25.382812 12.132812 26.835938 11.527344 28.179688 11.527344 C 29.296875 11.527344 29.855469 11.898438 29.855469 12.640625 C 29.855469 13 29.722656 13.3125 29.457031 13.578125 C 29.195312 13.839844 28.886719 13.972656 28.539062 13.972656 C 28.011719 13.972656 27.746094 13.746094 27.746094 13.289062 C 27.746094 12.691406 28.085938 12.390625 28.757812 12.390625 C 28.925781 12.390625 29.109375 12.457031 29.3125 12.585938 C 29.085938 12.214844 28.78125 12.03125 28.394531 12.03125 C 27.460938 12.03125 26.21875 12.785156 24.671875 14.296875 C 23.109375 15.796875 22.328125 17.015625 22.328125 17.953125 C 22.328125 18.359375 22.671875 18.5625 23.355469 18.5625 " transform="matrix(1,0,0,1,32,175)"/>
<path style="fill-rule:nonzero;fill:rgb(100%,100%,100%);fill-opacity:1;stroke-width:0.875;stroke-linecap:butt;stroke-linejoin:miter;stroke:rgb(90.1961%,90.1961%,90.1961%);stroke-opacity:1;stroke-miterlimit:4;" d="M 31.507812 18.597656 C 32.585938 18.597656 34.007812 17.925781 35.773438 16.582031 C 37.597656 15.179688 38.507812 13.960938 38.507812 12.929688 C 38.507812 12.316406 38.160156 12.011719 37.464844 12.011719 C 36.601562 12.011719 35.261719 12.792969 33.449219 14.351562 C 31.636719 15.910156 30.730469 17.113281 30.730469 17.953125 C 30.730469 18.382812 30.992188 18.597656 31.507812 18.597656 M 29.742188 17.214844 C 29.742188 15.820312 30.660156 14.496094 32.496094 13.234375 C 34.1875 12.070312 35.765625 11.488281 37.230469 11.488281 C 38.441406 11.488281 39.046875 11.953125 39.046875 12.875 C 39.046875 13.089844 39.007812 13.335938 38.921875 13.613281 C 39.222656 13.3125 39.851562 12.605469 40.8125 11.488281 L 42.882812 11.488281 C 41.828125 12.640625 40.769531 13.792969 39.714844 14.945312 C 38.011719 16.851562 37.144531 17.945312 37.121094 18.222656 L 37.410156 18.457031 C 38.023438 18.480469 39.097656 17.941406 40.632812 16.835938 C 42.179688 15.71875 42.976562 15.15625 43.027344 15.144531 L 43.242188 15.414062 C 43.230469 15.820312 42.316406 16.535156 40.507812 17.554688 C 38.742188 18.5625 37.597656 19.066406 37.066406 19.066406 C 36.347656 19.066406 35.988281 18.683594 35.988281 17.914062 C 35.988281 17.589844 36.042969 17.28125 36.148438 16.980469 C 34.375 18.382812 32.875 19.085938 31.648438 19.085938 C 30.378906 19.085938 29.742188 18.460938 29.742188 17.214844 " transform="matrix(1,0,0,1,32,175)"/>
<path style="fill-rule:nonzero;fill:rgb(100%,100%,100%);fill-opacity:1;stroke-width:0.875;stroke-linecap:butt;stroke-linejoin:miter;stroke:rgb(90.1961%,90.1961%,90.1961%);stroke-opacity:1;stroke-miterlimit:4;" d="M 55.648438 11.488281 L 57.679688 11.488281 L 50.914062 19.195312 C 52.402344 18.675781 54.039062 17.71875 55.828125 16.3125 C 56.113281 16.027344 56.589844 15.636719 57.25 15.144531 L 57.445312 15.125 L 57.574219 15.304688 L 57.519531 15.484375 C 56.964844 16.289062 55.789062 17.164062 53.992188 18.113281 C 51.484375 19.433594 50.210938 20.105469 50.175781 20.128906 C 49.574219 20.539062 48.507812 21.515625 46.96875 23.0625 C 45.351562 24.683594 44.085938 25.828125 43.171875 26.5 C 41.660156 27.605469 40.296875 28.15625 39.085938 28.15625 C 38.175781 28.15625 37.71875 27.71875 37.71875 26.84375 C 37.71875 25.425781 39.050781 24.054688 41.714844 22.722656 C 42.421875 22.363281 44.398438 21.574219 47.636719 20.363281 L 50.914062 16.511719 C 48.597656 18.191406 46.820312 19.03125 45.585938 19.03125 C 45.1875 19.03125 44.851562 18.875 44.578125 18.5625 C 44.289062 18.25 44.144531 17.898438 44.144531 17.5 C 44.144531 16.746094 44.792969 15.703125 46.089844 14.371094 C 47.433594 13 48.109375 12.257812 48.121094 12.136719 L 47.871094 11.957031 C 47.355469 11.945312 46.472656 12.535156 45.222656 13.722656 C 43.929688 14.957031 43.238281 15.582031 43.15625 15.59375 L 42.921875 15.414062 C 42.957031 14.96875 43.699219 14.207031 45.152344 13.128906 C 46.59375 12.035156 47.566406 11.488281 48.070312 11.488281 C 48.753906 11.488281 49.09375 11.921875 49.09375 12.785156 C 49.09375 13.457031 48.457031 14.488281 47.1875 15.882812 C 45.914062 17.261719 45.277344 18.066406 45.277344 18.292969 C 45.277344 18.449219 45.410156 18.527344 45.675781 18.527344 C 47.667969 18.527344 50.992188 16.179688 55.648438 11.488281 M 39.050781 27.707031 C 40.480469 27.707031 41.992188 26.890625 43.585938 25.257812 C 43.683594 25.152344 44.835938 23.742188 47.042969 21.03125 C 44.292969 22.085938 42.542969 22.804688 41.785156 23.191406 C 39.398438 24.414062 38.203125 25.644531 38.203125 26.878906 C 38.203125 27.429688 38.488281 27.707031 39.050781 27.707031 " transform="matrix(1,0,0,1,32,175)"/>
<path style="fill-rule:nonzero;fill:rgb(100%,100%,100%);fill-opacity:1;stroke-width:0.875;stroke-linecap:butt;stroke-linejoin:miter;stroke:rgb(90.1961%,90.1961%,90.1961%);stroke-opacity:1;stroke-miterlimit:4;" d="M 63.648438 15.574219 L 63.488281 15.324219 L 63.597656 15.109375 C 67.003906 12.804688 69.476562 10.792969 71.011719 9.078125 L 70.074219 9.078125 L 69.769531 8.84375 C 69.867188 8.628906 70.425781 8.539062 71.445312 8.574219 L 74.574219 5.0625 L 76.683594 5.0625 L 73.515625 8.574219 L 75.78125 8.574219 L 76.015625 8.824219 C 75.980469 9.042969 75.03125 9.125 73.171875 9.078125 C 71.730469 10.671875 70.292969 12.269531 68.851562 13.867188 C 66.476562 16.542969 65.269531 18.003906 65.234375 18.257812 L 65.503906 18.417969 C 66.894531 18.492188 68.996094 17.386719 71.804688 15.109375 L 71.964844 15.359375 C 71.953125 15.863281 70.976562 16.621094 69.03125 17.628906 C 67.171875 18.585938 65.910156 19.066406 65.25 19.066406 C 64.507812 19.066406 64.136719 18.691406 64.136719 17.933594 C 64.136719 17.082031 64.550781 16.175781 65.378906 15.214844 C 66.109375 14.484375 66.84375 13.75 67.574219 13.019531 C 66.398438 13.835938 65.089844 14.6875 63.648438 15.574219 " transform="matrix(1,0,0,1,32,175)"/>
<path style="fill-rule:nonzero;fill:rgb(100%,100%,100%);fill-opacity:1;stroke-width:0.875;stroke-linecap:butt;stroke-linejoin:miter;stroke:rgb(90.1961%,90.1961%,90.1961%);stroke-opacity:1;stroke-miterlimit:4;" d="M 82.390625 7.3125 C 82.222656 7.734375 81.832031 8.140625 81.222656 8.539062 C 80.777344 8.238281 80.421875 7.851562 80.160156 7.386719 C 80.386719 6.882812 80.753906 6.492188 81.257812 6.214844 C 81.628906 6.394531 82.007812 6.761719 82.390625 7.3125 M 78.59375 11.488281 C 77.550781 12.640625 76.503906 13.800781 75.460938 14.964844 C 73.757812 16.882812 72.894531 17.96875 72.867188 18.222656 L 73.175781 18.417969 C 73.941406 18.457031 75.144531 17.921875 76.773438 16.816406 C 78.46875 15.675781 79.335938 15.109375 79.386719 15.109375 L 79.546875 15.359375 C 79.523438 15.792969 78.519531 16.523438 76.539062 17.554688 C 74.632812 18.5625 73.386719 19.066406 72.796875 19.066406 C 72.066406 19.066406 71.699219 18.675781 71.699219 17.898438 C 71.699219 17.296875 71.933594 16.65625 72.402344 15.972656 C 72.4375 15.921875 72.867188 15.382812 73.695312 14.351562 C 73.191406 14.722656 72.539062 15.125 71.734375 15.558594 L 71.535156 15.324219 L 71.664062 15.109375 C 73.667969 13.777344 75.300781 12.570312 76.558594 11.488281 L 78.59375 11.488281 " transform="matrix(1,0,0,1,32,175)"/>
<path style="fill-rule:nonzero;fill:rgb(100%,100%,100%);fill-opacity:1;stroke-width:0.875;stroke-linecap:butt;stroke-linejoin:miter;stroke:rgb(90.1961%,90.1961%,90.1961%);stroke-opacity:1;stroke-miterlimit:4;" d="M 94.738281 18.222656 L 95.042969 18.417969 C 95.859375 18.457031 97.078125 17.925781 98.699219 16.835938 C 100.367188 15.707031 101.230469 15.136719 101.289062 15.125 L 101.398438 15.304688 C 101.398438 15.832031 100.425781 16.601562 98.480469 17.609375 C 96.621094 18.582031 95.355469 19.066406 94.683594 19.066406 C 93.925781 19.066406 93.550781 18.648438 93.550781 17.808594 C 93.550781 17.074219 94.09375 16.054688 95.1875 14.746094 C 96.027344 13.847656 96.863281 12.941406 97.691406 12.03125 C 97.472656 11.96875 96.855469 11.941406 95.835938 11.941406 C 94.816406 11.941406 92.199219 14.304688 87.988281 19.03125 L 85.882812 19.03125 L 91.695312 12.03125 C 91.46875 11.957031 90.855469 11.921875 89.859375 11.921875 C 88.875 11.921875 86.230469 14.292969 81.921875 19.03125 L 79.886719 19.03125 C 81.699219 16.882812 83.558594 14.589844 85.46875 12.15625 L 85.214844 11.992188 C 84.628906 11.980469 83.542969 12.546875 81.957031 13.683594 C 80.289062 14.886719 79.414062 15.496094 79.328125 15.523438 L 79.167969 15.324219 C 79.191406 14.878906 80.117188 14.125 81.941406 13.054688 C 83.714844 12.011719 84.886719 11.488281 85.449219 11.488281 C 85.703125 11.488281 85.929688 11.589844 86.132812 11.796875 C 86.335938 12 86.441406 12.226562 86.441406 12.480469 C 86.441406 12.984375 86.199219 13.660156 85.71875 14.511719 C 88.261719 12.496094 90.152344 11.488281 91.390625 11.488281 C 92.039062 11.488281 92.363281 11.878906 92.363281 12.660156 C 92.363281 13.257812 92.15625 13.878906 91.75 14.511719 C 94.234375 12.496094 96.105469 11.488281 97.367188 11.488281 C 98.050781 11.488281 98.390625 11.878906 98.390625 12.660156 C 98.390625 13.546875 97.78125 14.644531 96.554688 15.953125 C 95.34375 17.261719 94.738281 18.015625 94.738281 18.222656 " transform="matrix(1,0,0,1,32,175)"/>
<path style="fill-rule:nonzero;fill:rgb(100%,100%,100%);fill-opacity:1;stroke-width:0.875;stroke-linecap:butt;stroke-linejoin:miter;stroke:rgb(90.1961%,90.1961%,90.1961%);stroke-opacity:1;stroke-miterlimit:4;" d="M 109.300781 15.070312 L 109.480469 15.359375 L 109.40625 15.539062 C 106.132812 17.902344 103.871094 19.085938 102.621094 19.085938 C 101.050781 19.085938 100.261719 18.480469 100.261719 17.265625 C 100.261719 15.972656 101.085938 14.664062 102.730469 13.34375 C 104.300781 12.082031 105.746094 11.453125 107.066406 11.453125 C 107.824219 11.453125 108.203125 11.765625 108.203125 12.390625 C 108.203125 13.109375 107.625 13.746094 106.472656 14.296875 C 105.40625 14.753906 104.335938 15.214844 103.269531 15.683594 C 102.117188 16.285156 101.542969 17.015625 101.542969 17.878906 C 101.542969 18.3125 101.8125 18.527344 102.351562 18.527344 C 103.492188 18.527344 104.925781 17.953125 106.652344 16.800781 C 108.394531 15.648438 109.273438 15.070312 109.300781 15.070312 M 103.609375 14.820312 C 106.3125 13.929688 107.660156 13.128906 107.660156 12.40625 C 107.660156 12.132812 107.527344 11.992188 107.265625 11.992188 C 106.339844 11.992188 105.125 12.933594 103.609375 14.820312 " transform="matrix(1,0,0,1,32,175)"/>
<path style="fill:none;stroke-width:1;stroke-linecap:butt;stroke-linejoin:miter;stroke:rgb(0%,0%,0%);stroke-opacity:1;stroke-miterlimit:4;" d="M 51.039062 25.675781 L 51.039062 38.953125 L 63.269531 38.953125 " transform="matrix(1,0,0,1,163,175)"/>
<path style="fill:none;stroke-width:1.5;stroke-linecap:butt;stroke-linejoin:miter;stroke:rgb(20%,20%,20%);stroke-opacity:1;stroke-miterlimit:4;" d="M 51.230469 28.472656 L 59.871094 38.800781 " transform="matrix(1,0,0,1,163,175)"/>
<path style="fill-rule:nonzero;fill:rgb(100%,100%,100%);fill-opacity:1;stroke-width:0.875;stroke-linecap:butt;stroke-linejoin:miter;stroke:rgb(90.1961%,90.1961%,90.1961%);stroke-opacity:1;stroke-miterlimit:4;" d="M 0.4375 17.214844 C 0.4375 15.84375 1.355469 14.527344 3.191406 13.253906 C 4.871094 12.078125 6.425781 11.488281 7.851562 11.488281 C 8.921875 11.488281 9.527344 11.867188 9.671875 12.625 L 20.238281 0.4375 L 22.648438 0.4375 C 19.914062 3.558594 17.175781 6.683594 14.441406 9.816406 C 9.871094 15.070312 7.53125 17.875 7.421875 18.222656 L 7.746094 18.417969 C 8.5625 18.457031 9.765625 17.925781 11.363281 16.835938 C 13.019531 15.71875 13.894531 15.15625 13.992188 15.144531 L 14.082031 15.324219 C 14.046875 15.78125 13.050781 16.523438 11.09375 17.554688 C 9.199219 18.5625 7.957031 19.066406 7.367188 19.066406 C 6.683594 19.066406 6.339844 18.792969 6.339844 18.238281 C 6.339844 17.941406 6.4375 17.585938 6.628906 17.175781 C 4.890625 18.460938 3.40625 19.101562 2.183594 19.101562 C 1.019531 19.101562 0.4375 18.472656 0.4375 17.214844 M 2.203125 18.597656 C 3.292969 18.597656 4.714844 17.925781 6.46875 16.582031 C 8.304688 15.179688 9.222656 13.960938 9.222656 12.929688 C 9.222656 12.316406 8.867188 12.011719 8.160156 12.011719 C 7.296875 12.011719 5.957031 12.792969 4.144531 14.351562 C 2.332031 15.910156 1.425781 17.113281 1.425781 17.953125 C 1.425781 18.382812 1.683594 18.597656 2.203125 18.597656 " transform="matrix(1,0,0,1,163,175)"/>
<path style="fill-rule:nonzero;fill:rgb(100%,100%,100%);fill-opacity:1;stroke-width:0.875;stroke-linecap:butt;stroke-linejoin:miter;stroke:rgb(90.1961%,90.1961%,90.1961%);stroke-opacity:1;stroke-miterlimit:4;" d="M 22.113281 15.070312 L 22.292969 15.359375 L 22.21875 15.539062 C 18.945312 17.902344 16.683594 19.085938 15.433594 19.085938 C 13.863281 19.085938 13.074219 18.480469 13.074219 17.265625 C 13.074219 15.972656 13.898438 14.664062 15.542969 13.34375 C 17.113281 12.082031 18.558594 11.453125 19.878906 11.453125 C 20.636719 11.453125 21.015625 11.765625 21.015625 12.390625 C 21.015625 13.109375 20.4375 13.746094 19.285156 14.296875 C 18.21875 14.753906 17.148438 15.214844 16.082031 15.683594 C 14.929688 16.285156 14.355469 17.015625 14.355469 17.878906 C 14.355469 18.3125 14.625 18.527344 15.164062 18.527344 C 16.304688 18.527344 17.738281 17.953125 19.464844 16.800781 C 21.207031 15.648438 22.085938 15.070312 22.113281 15.070312 M 16.421875 14.820312 C 19.125 13.929688 20.472656 13.128906 20.472656 12.40625 C 20.472656 12.132812 20.339844 11.992188 20.078125 11.992188 C 19.152344 11.992188 17.9375 12.933594 16.421875 14.820312 " transform="matrix(1,0,0,1,163,175)"/>
<path style="fill-rule:nonzero;fill:rgb(100%,100%,100%);fill-opacity:1;stroke-width:0.875;stroke-linecap:butt;stroke-linejoin:miter;stroke:rgb(90.1961%,90.1961%,90.1961%);stroke-opacity:1;stroke-miterlimit:4;" d="M 23.355469 18.5625 C 24.4375 18.5625 25.875 17.992188 27.675781 16.851562 C 29.535156 15.691406 30.472656 15.109375 30.484375 15.109375 L 30.699219 15.414062 C 30.6875 15.894531 29.554688 16.636719 27.296875 17.644531 C 25.113281 18.605469 23.679688 19.085938 22.996094 19.085938 C 21.890625 19.085938 21.339844 18.460938 21.339844 17.214844 C 21.339844 15.90625 22.167969 14.617188 23.824219 13.34375 C 25.382812 12.132812 26.835938 11.527344 28.179688 11.527344 C 29.296875 11.527344 29.855469 11.898438 29.855469 12.640625 C 29.855469 13 29.722656 13.3125 29.457031 13.578125 C 29.195312 13.839844 28.886719 13.972656 28.539062 13.972656 C 28.011719 13.972656 27.746094 13.746094 27.746094 13.289062 C 27.746094 12.691406 28.085938 12.390625 28.757812 12.390625 C 28.925781 12.390625 29.109375 12.457031 29.3125 12.585938 C 29.085938 12.214844 28.78125 12.03125 28.394531 12.03125 C 27.460938 12.03125 26.21875 12.785156 24.671875 14.296875 C 23.109375 15.796875 22.328125 17.015625 22.328125 17.953125 C 22.328125 18.359375 22.671875 18.5625 23.355469 18.5625 " transform="matrix(1,0,0,1,163,175)"/>
<path style="fill-rule:nonzero;fill:rgb(100%,100%,100%);fill-opacity:1;stroke-width:0.875;stroke-linecap:butt;stroke-linejoin:miter;stroke:rgb(90.1961%,90.1961%,90.1961%);stroke-opacity:1;stroke-miterlimit:4;" d="M 31.507812 18.597656 C 32.585938 18.597656 34.007812 17.925781 35.773438 16.582031 C 37.597656 15.179688 38.507812 13.960938 38.507812 12.929688 C 38.507812 12.316406 38.160156 12.011719 37.464844 12.011719 C 36.601562 12.011719 35.261719 12.792969 33.449219 14.351562 C 31.636719 15.910156 30.730469 17.113281 30.730469 17.953125 C 30.730469 18.382812 30.992188 18.597656 31.507812 18.597656 M 29.742188 17.214844 C 29.742188 15.820312 30.660156 14.496094 32.496094 13.234375 C 34.1875 12.070312 35.765625 11.488281 37.230469 11.488281 C 38.441406 11.488281 39.046875 11.953125 39.046875 12.875 C 39.046875 13.089844 39.007812 13.335938 38.921875 13.613281 C 39.222656 13.3125 39.851562 12.605469 40.8125 11.488281 L 42.882812 11.488281 C 41.828125 12.640625 40.769531 13.792969 39.714844 14.945312 C 38.011719 16.851562 37.144531 17.945312 37.121094 18.222656 L 37.410156 18.457031 C 38.023438 18.480469 39.097656 17.941406 40.632812 16.835938 C 42.179688 15.71875 42.976562 15.15625 43.027344 15.144531 L 43.242188 15.414062 C 43.230469 15.820312 42.316406 16.535156 40.507812 17.554688 C 38.742188 18.5625 37.597656 19.066406 37.066406 19.066406 C 36.347656 19.066406 35.988281 18.683594 35.988281 17.914062 C 35.988281 17.589844 36.042969 17.28125 36.148438 16.980469 C 34.375 18.382812 32.875 19.085938 31.648438 19.085938 C 30.378906 19.085938 29.742188 18.460938 29.742188 17.214844 " transform="matrix(1,0,0,1,163,175)"/>
<path style="fill-rule:nonzero;fill:rgb(100%,100%,100%);fill-opacity:1;stroke-width:0.875;stroke-linecap:butt;stroke-linejoin:miter;stroke:rgb(90.1961%,90.1961%,90.1961%);stroke-opacity:1;stroke-miterlimit:4;" d="M 55.648438 11.488281 L 57.679688 11.488281 L 50.914062 19.195312 C 52.402344 18.675781 54.039062 17.71875 55.828125 16.3125 C 56.113281 16.027344 56.589844 15.636719 57.25 15.144531 L 57.445312 15.125 L 57.574219 15.304688 L 57.519531 15.484375 C 56.964844 16.289062 55.789062 17.164062 53.992188 18.113281 C 51.484375 19.433594 50.210938 20.105469 50.175781 20.128906 C 49.574219 20.539062 48.507812 21.515625 46.96875 23.0625 C 45.351562 24.683594 44.085938 25.828125 43.171875 26.5 C 41.660156 27.605469 40.296875 28.15625 39.085938 28.15625 C 38.175781 28.15625 37.71875 27.71875 37.71875 26.84375 C 37.71875 25.425781 39.050781 24.054688 41.714844 22.722656 C 42.421875 22.363281 44.398438 21.574219 47.636719 20.363281 L 50.914062 16.511719 C 48.597656 18.191406 46.820312 19.03125 45.585938 19.03125 C 45.1875 19.03125 44.851562 18.875 44.578125 18.5625 C 44.289062 18.25 44.144531 17.898438 44.144531 17.5 C 44.144531 16.746094 44.792969 15.703125 46.089844 14.371094 C 47.433594 13 48.109375 12.257812 48.121094 12.136719 L 47.871094 11.957031 C 47.355469 11.945312 46.472656 12.535156 45.222656 13.722656 C 43.929688 14.957031 43.238281 15.582031 43.15625 15.59375 L 42.921875 15.414062 C 42.957031 14.96875 43.699219 14.207031 45.152344 13.128906 C 46.59375 12.035156 47.566406 11.488281 48.070312 11.488281 C 48.753906 11.488281 49.09375 11.921875 49.09375 12.785156 C 49.09375 13.457031 48.457031 14.488281 47.1875 15.882812 C 45.914062 17.261719 45.277344 18.066406 45.277344 18.292969 C 45.277344 18.449219 45.410156 18.527344 45.675781 18.527344 C 47.667969 18.527344 50.992188 16.179688 55.648438 11.488281 M 39.050781 27.707031 C 40.480469 27.707031 41.992188 26.890625 43.585938 25.257812 C 43.683594 25.152344 44.835938 23.742188 47.042969 21.03125 C 44.292969 22.085938 42.542969 22.804688 41.785156 23.191406 C 39.398438 24.414062 38.203125 25.644531 38.203125 26.878906 C 38.203125 27.429688 38.488281 27.707031 39.050781 27.707031 " transform="matrix(1,0,0,1,163,175)"/>
<path style="fill-rule:nonzero;fill:rgb(100%,100%,100%);fill-opacity:1;stroke-width:0.875;stroke-linecap:butt;stroke-linejoin:miter;stroke:rgb(90.1961%,90.1961%,90.1961%);stroke-opacity:1;stroke-miterlimit:4;" d="M 64.945312 18.5625 C 66.027344 18.5625 67.464844 17.992188 69.265625 16.851562 C 71.125 15.691406 72.0625 15.109375 72.074219 15.109375 L 72.289062 15.414062 C 72.277344 15.894531 71.144531 16.636719 68.886719 17.644531 C 66.703125 18.605469 65.269531 19.085938 64.585938 19.085938 C 63.480469 19.085938 62.929688 18.460938 62.929688 17.214844 C 62.929688 15.90625 63.757812 14.617188 65.414062 13.34375 C 66.972656 12.132812 68.425781 11.527344 69.769531 11.527344 C 70.886719 11.527344 71.445312 11.898438 71.445312 12.640625 C 71.445312 13 71.3125 13.3125 71.046875 13.578125 C 70.785156 13.839844 70.476562 13.972656 70.128906 13.972656 C 69.601562 13.972656 69.335938 13.746094 69.335938 13.289062 C 69.335938 12.691406 69.675781 12.390625 70.347656 12.390625 C 70.515625 12.390625 70.699219 12.457031 70.902344 12.585938 C 70.675781 12.214844 70.371094 12.03125 69.984375 12.03125 C 69.050781 12.03125 67.808594 12.785156 66.261719 14.296875 C 64.699219 15.796875 63.917969 17.015625 63.917969 17.953125 C 63.917969 18.359375 64.261719 18.5625 64.945312 18.5625 " transform="matrix(1,0,0,1,163,175)"/>
<path style="fill-rule:nonzero;fill:rgb(100%,100%,100%);fill-opacity:1;stroke-width:0.875;stroke-linecap:butt;stroke-linejoin:miter;stroke:rgb(90.1961%,90.1961%,90.1961%);stroke-opacity:1;stroke-miterlimit:4;" d="M 72.050781 15.558594 L 71.835938 15.289062 C 71.859375 15.179688 72.554688 14.644531 73.925781 13.683594 C 75.386719 12.628906 76.292969 11.898438 76.640625 11.488281 L 79.035156 11.488281 C 77.980469 12.652344 76.925781 13.824219 75.867188 15 C 74.140625 16.945312 73.265625 18.035156 73.238281 18.277344 L 73.492188 18.4375 C 75.195312 18.523438 78.148438 16.207031 82.347656 11.488281 L 84.777344 11.488281 C 83.722656 12.652344 82.667969 13.816406 81.609375 14.980469 C 79.871094 16.925781 79 18.011719 79 18.238281 C 79 18.40625 79.125 18.492188 79.378906 18.492188 C 80.84375 18.492188 82.882812 17.359375 85.5 15.089844 L 85.625 15.324219 L 85.570312 15.484375 C 82.988281 17.875 80.792969 19.066406 78.980469 19.066406 C 78.238281 19.066406 77.867188 18.714844 77.867188 18.003906 C 77.867188 17.476562 78.101562 16.8125 78.566406 16.007812 C 75.988281 18.09375 74.117188 19.140625 72.953125 19.140625 C 72.28125 19.140625 71.945312 18.75 71.945312 17.96875 C 71.945312 17.332031 72.71875 16.0625 74.265625 14.152344 C 73.652344 14.597656 72.917969 15.066406 72.050781 15.558594 " transform="matrix(1,0,0,1,163,175)"/>
<path style="fill-rule:nonzero;fill:rgb(100%,100%,100%);fill-opacity:1;stroke-width:0.875;stroke-linecap:butt;stroke-linejoin:miter;stroke:rgb(90.1961%,90.1961%,90.1961%);stroke-opacity:1;stroke-miterlimit:4;" d="M 85.265625 15.144531 C 86.78125 13.882812 87.890625 12.886719 88.597656 12.15625 C 88.152344 12.011719 87.929688 11.730469 87.929688 11.308594 C 87.929688 10.589844 88.304688 10.230469 89.046875 10.230469 C 89.527344 10.230469 89.765625 10.476562 89.765625 10.96875 C 89.765625 11.253906 89.652344 11.488281 89.425781 11.667969 C 90.144531 11.667969 90.792969 11.578125 91.371094 11.398438 L 92.070312 12.820312 C 91.21875 13.734375 90.367188 14.644531 89.515625 15.558594 C 88.148438 17.058594 87.464844 17.921875 87.464844 18.148438 C 87.464844 18.316406 87.582031 18.402344 87.824219 18.402344 C 89.121094 18.402344 91.148438 17.304688 93.90625 15.109375 L 94.125 15.394531 C 94.113281 15.792969 93.109375 16.511719 91.117188 17.554688 C 89.1875 18.5625 87.9375 19.066406 87.375 19.066406 C 86.617188 19.066406 86.238281 18.617188 86.238281 17.71875 C 86.238281 16.996094 86.832031 15.972656 88.023438 14.640625 C 88.835938 13.8125 89.652344 12.984375 90.46875 12.15625 C 90.050781 12.226562 89.660156 12.25 89.300781 12.226562 C 87.105469 14.421875 85.800781 15.535156 85.394531 15.558594 L 85.195312 15.304688 L 85.265625 15.144531 " transform="matrix(1,0,0,1,163,175)"/>
<path style="fill-rule:nonzero;fill:rgb(100%,100%,100%);fill-opacity:1;stroke-width:0.875;stroke-linecap:butt;stroke-linejoin:miter;stroke:rgb(90.1961%,90.1961%,90.1961%);stroke-opacity:1;stroke-miterlimit:4;" d="M 95.792969 18.167969 C 95.792969 18.382812 96.019531 18.492188 96.476562 18.492188 C 97.84375 18.492188 99.699219 17.464844 102.039062 15.414062 C 101.976562 15.171875 101.949219 14.898438 101.949219 14.585938 C 101.949219 14.273438 102.300781 13.683594 103.011719 12.820312 C 103.742188 11.910156 104.410156 11.453125 105.007812 11.453125 C 105.320312 11.453125 105.476562 11.609375 105.476562 11.921875 C 105.476562 12.882812 104.601562 14.070312 102.847656 15.484375 C 103.027344 15.640625 103.230469 15.71875 103.460938 15.71875 C 103.785156 15.71875 104.148438 15.617188 104.558594 15.414062 C 104.964844 15.210938 105.261719 15.09375 105.441406 15.070312 L 105.621094 15.339844 L 105.511719 15.539062 C 104.804688 16.019531 104.109375 16.257812 103.425781 16.257812 C 103.0625 16.257812 102.734375 16.121094 102.433594 15.84375 C 99.855469 17.957031 97.902344 19.011719 96.585938 19.011719 C 95.445312 19.011719 94.875 18.496094 94.875 17.464844 C 94.875 16.722656 95.535156 15.675781 96.855469 14.332031 C 98.175781 12.988281 98.839844 12.257812 98.851562 12.136719 L 98.601562 11.957031 C 98.058594 11.933594 97.148438 12.535156 95.863281 13.757812 C 94.582031 14.980469 93.921875 15.59375 93.882812 15.59375 L 93.648438 15.414062 C 93.664062 14.980469 94.398438 14.21875 95.863281 13.128906 C 97.316406 12.035156 98.292969 11.488281 98.796875 11.488281 C 99.480469 11.488281 99.824219 11.921875 99.824219 12.785156 C 99.824219 13.53125 99.152344 14.554688 97.808594 15.863281 C 96.464844 17.160156 95.792969 17.925781 95.792969 18.167969 " transform="matrix(1,0,0,1,163,175)"/>
<path style="fill-rule:nonzero;fill:rgb(100%,100%,100%);fill-opacity:1;stroke-width:0.875;stroke-linecap:butt;stroke-linejoin:miter;stroke:rgb(90.1961%,90.1961%,90.1961%);stroke-opacity:1;stroke-miterlimit:4;" d="M 113.695312 15.070312 L 113.875 15.359375 L 113.800781 15.539062 C 110.527344 17.902344 108.265625 19.085938 107.015625 19.085938 C 105.445312 19.085938 104.65625 18.480469 104.65625 17.265625 C 104.65625 15.972656 105.480469 14.664062 107.125 13.34375 C 108.695312 12.082031 110.140625 11.453125 111.460938 11.453125 C 112.21875 11.453125 112.597656 11.765625 112.597656 12.390625 C 112.597656 13.109375 112.019531 13.746094 110.867188 14.296875 C 109.800781 14.753906 108.730469 15.214844 107.664062 15.683594 C 106.511719 16.285156 105.9375 17.015625 105.9375 17.878906 C 105.9375 18.3125 106.207031 18.527344 106.746094 18.527344 C 107.886719 18.527344 109.320312 17.953125 111.046875 16.800781 C 112.789062 15.648438 113.667969 15.070312 113.695312 15.070312 M 108.003906 14.820312 C 110.707031 13.929688 112.054688 13.128906 112.054688 12.40625 C 112.054688 12.132812 111.921875 11.992188 111.660156 11.992188 C 110.734375 11.992188 109.519531 12.933594 108.003906 14.820312 " transform="matrix(1,0,0,1,163,175)"/>
<path style="fill:none;stroke-width:1;stroke-linecap:butt;stroke-linejoin:miter;stroke:rgb(0%,0%,0%);stroke-opacity:1;stroke-miterlimit:4;" d="M 11.515625 105.445312 L 11.515625 123.085938 L 27.769531 123.085938 " transform="matrix(1,0,0,1,163,175)"/>
<path style="fill:none;stroke-width:1.5;stroke-linecap:butt;stroke-linejoin:miter;stroke:rgb(20%,20%,20%);stroke-opacity:1;stroke-miterlimit:4;" d="M 23.496094 122.511719 C 12.164062 121.332031 12.222656 113.769531 12.019531 108.785156 " transform="matrix(1,0,0,1,163,175)"/>
<path style="fill:none;stroke-width:1;stroke-linecap:butt;stroke-linejoin:miter;stroke:rgb(0%,0%,0%);stroke-opacity:1;stroke-miterlimit:4;" d="M 99.421875 105.445312 L 99.421875 123.085938 L 115.671875 123.085938 " transform="matrix(1,0,0,1,163,175)"/>
<path style="fill:none;stroke-width:1.5;stroke-linecap:butt;stroke-linejoin:miter;stroke:rgb(20%,20%,20%);stroke-opacity:1;stroke-miterlimit:4;" d="M 99.671875 109.082031 C 111.007812 110.261719 110.949219 117.824219 111.152344 122.804688 " transform="matrix(1,0,0,1,163,175)"/>
<path style=" stroke:none;fill-rule:nonzero;fill:rgb(10.1961%,10.1961%,10.1961%);fill-opacity:1;" d="M 412.714844 254.039062 C 409.304688 253.464844 407.597656 251.234375 407.597656 247.347656 C 407.597656 245.195312 408.226562 243.359375 409.488281 241.835938 C 410.90625 240.105469 412.742188 239.238281 415 239.238281 L 416.1875 239.238281 C 418.234375 239.238281 419.863281 239.949219 421.070312 241.363281 C 422.121094 242.625 422.644531 244.199219 422.644531 246.089844 C 422.644531 248.136719 422.066406 249.945312 420.914062 251.519531 C 419.601562 253.199219 417.894531 254.09375 415.792969 254.199219 M 414.21875 241.207031 L 413.03125 241.207031 C 411.980469 241.207031 411.140625 241.628906 410.511719 242.46875 C 409.882812 243.308594 409.566406 244.25 409.566406 245.300781 C 409.566406 247.296875 410.433594 248.292969 412.164062 248.292969 L 415.15625 248.292969 L 410.285156 248.292969 L 413.355469 248.292969 C 414.402344 248.292969 415.242188 247.875 415.875 247.035156 C 416.503906 246.195312 416.816406 245.25 416.816406 244.199219 C 416.816406 242.203125 415.953125 241.207031 414.21875 241.207031 "/>
<path style=" stroke:none;fill-rule:nonzero;fill:rgb(10.1961%,10.1961%,10.1961%);fill-opacity:1;" d="M 423.867188 281.757812 C 424.8125 288.425781 425.285156 292.386719 425.285156 293.648438 C 425.285156 300.417969 422.792969 303.804688 417.804688 303.804688 L 399.617188 303.804688 C 395.417969 303.804688 393.320312 301.652344 393.320312 297.347656 C 393.320312 295.039062 393.949219 292.019531 395.210938 288.292969 C 396.152344 285.824219 397.097656 283.359375 398.042969 280.890625 C 399.511719 277.113281 401.742188 275.066406 404.734375 274.75 L 405.351562 269.90625 L 406.113281 263.214844 C 406.355469 261.074219 406.742188 259.222656 408.003906 257.703125 C 409.421875 255.96875 411.257812 255.101562 413.515625 255.101562 L 413.707031 255.101562 C 415.753906 255.101562 417.382812 255.8125 418.589844 257.230469 C 419.640625 258.488281 420.164062 260.0625 420.164062 261.953125 L 418.75 274.90625 C 421.636719 275.539062 423.34375 277.820312 423.867188 281.757812 M 413.75 257.285156 C 412.851562 257.148438 412.445312 257.207031 411.546875 257.070312 C 410.496094 257.070312 409.65625 257.492188 409.027344 258.332031 C 408.398438 259.171875 408.082031 260.117188 408.082031 261.164062 L 407.792969 264.15625 L 406.3125 276.640625 C 404.054688 276.640625 402.664062 276.746094 402.136719 276.957031 C 401.191406 277.324219 400.433594 278.398438 399.855469 280.183594 L 395.050781 294.355469 C 395 294.617188 394.972656 294.90625 394.972656 295.222656 C 394.972656 295.957031 395.234375 296.585938 395.761719 297.109375 C 396.285156 297.636719 396.914062 297.898438 397.648438 297.898438 L 415.835938 297.898438 C 416.78125 297.898438 417.621094 297.53125 418.355469 296.796875 C 419.09375 296.0625 419.40625 295.246094 419.300781 294.355469 L 418.042969 280.183594 C 417.832031 278.347656 417.253906 277.242188 416.308594 276.875 C 415.941406 276.71875 414.628906 276.640625 412.375 276.640625 L 414.339844 260.0625 "/>
<path style="fill:none;stroke-width:0.893644;stroke-linecap:butt;stroke-linejoin:miter;stroke:rgb(0%,0%,0%);stroke-opacity:1;stroke-miterlimit:4;" d="M 136.988281 285.914062 C 137.960938 285.945312 138.9375 285.644531 139.730469 285.078125 C 140.382812 284.609375 140.902344 283.960938 141.222656 283.222656 " transform="matrix(1,0,0,1,286,8)"/>
<path style="fill:none;stroke-width:5;stroke-linecap:butt;stroke-linejoin:miter;stroke:rgb(0%,0%,0%);stroke-opacity:1;stroke-miterlimit:4;" d="M 142.4375 283.3125 C 142.4375 284.003906 141.875 284.566406 141.183594 284.566406 C 140.488281 284.566406 139.925781 284.003906 139.925781 283.3125 C 139.925781 282.617188 140.488281 282.054688 141.183594 282.054688 C 141.875 282.054688 142.4375 282.617188 142.4375 283.3125 Z M 142.4375 283.3125 " transform="matrix(1,0,0,1,286,8)"/>
<path style="fill:none;stroke-width:5;stroke-linecap:butt;stroke-linejoin:miter;stroke:rgb(0%,0%,0%);stroke-opacity:1;stroke-miterlimit:4;" d="M 141.300781 281.972656 C 141.367188 281.722656 141.5 281.488281 141.683594 281.308594 C 141.824219 281.171875 141.992188 281.0625 142.171875 280.992188 " transform="matrix(1,0,0,1,286,8)"/>
<path style="fill:none;stroke-width:5;stroke-linecap:butt;stroke-linejoin:miter;stroke:rgb(0%,0%,0%);stroke-opacity:1;stroke-miterlimit:4;" d="M 141.152344 284.671875 C 141.089844 284.921875 140.953125 285.152344 140.769531 285.332031 C 140.628906 285.46875 140.460938 285.578125 140.28125 285.648438 " transform="matrix(1,0,0,1,286,8)"/>
<path style="fill:none;stroke-width:5;stroke-linecap:butt;stroke-linejoin:miter;stroke:rgb(0%,0%,0%);stroke-opacity:1;stroke-miterlimit:4;" d="M 142.421875 283.390625 C 142.671875 283.457031 142.902344 283.589844 143.085938 283.777344 C 143.222656 283.914062 143.328125 284.082031 143.398438 284.265625 " transform="matrix(1,0,0,1,286,8)"/>
<path style="fill:none;stroke-width:5;stroke-linecap:butt;stroke-linejoin:miter;stroke:rgb(0%,0%,0%);stroke-opacity:1;stroke-miterlimit:4;" d="M 139.878906 283.457031 C 139.628906 283.394531 139.398438 283.257812 139.21875 283.074219 C 139.082031 282.933594 138.972656 282.765625 138.902344 282.585938 " transform="matrix(1,0,0,1,286,8)"/>
<path style="fill:none;stroke-width:5;stroke-linecap:butt;stroke-linejoin:miter;stroke:rgb(0%,0%,0%);stroke-opacity:1;stroke-miterlimit:4;" d="M 140.28125 282.308594 C 140.152344 282.085938 140.082031 281.824219 140.085938 281.566406 C 140.085938 281.371094 140.128906 281.175781 140.207031 281 " transform="matrix(1,0,0,1,286,8)"/>
<path style="fill:none;stroke-width:5;stroke-linecap:butt;stroke-linejoin:miter;stroke:rgb(0%,0%,0%);stroke-opacity:1;stroke-miterlimit:4;" d="M 142.316406 282.535156 C 142.539062 282.402344 142.796875 282.332031 143.054688 282.335938 C 143.25 282.339844 143.445312 282.378906 143.625 282.460938 " transform="matrix(1,0,0,1,286,8)"/>
<path style="fill:none;stroke-width:5;stroke-linecap:butt;stroke-linejoin:miter;stroke:rgb(0%,0%,0%);stroke-opacity:1;stroke-miterlimit:4;" d="M 142.089844 284.320312 C 142.21875 284.542969 142.289062 284.804688 142.285156 285.0625 C 142.285156 285.257812 142.242188 285.453125 142.164062 285.628906 " transform="matrix(1,0,0,1,286,8)"/>
<path style="fill:none;stroke-width:5;stroke-linecap:butt;stroke-linejoin:miter;stroke:rgb(0%,0%,0%);stroke-opacity:1;stroke-miterlimit:4;" d="M 140.277344 284.3125 C 140.054688 284.445312 139.796875 284.511719 139.539062 284.511719 C 139.34375 284.507812 139.148438 284.464844 138.96875 284.386719 " transform="matrix(1,0,0,1,286,8)"/>
<path style="fill-rule:nonzero;fill:rgb(47.0588%,26.6667%,12.9412%);fill-opacity:1;stroke-width:1.805433;stroke-linecap:butt;stroke-linejoin:miter;stroke:rgb(47.0588%,26.6667%,12.9412%);stroke-opacity:1;stroke-miterlimit:4;" d="M 135.300781 237.738281 C 135.28125 236.292969 134.808594 234.910156 133.9375 233.769531 C 133.007812 232.554688 132.609375 232.214844 131.390625 231.632812 C 128.488281 230.242188 124.816406 231.222656 123.035156 233.867188 C 122.652344 234.433594 122.238281 234.898438 122.109375 234.902344 C 121.980469 234.90625 121.492188 234.621094 121.023438 234.265625 C 118.601562 232.445312 118.421875 228.503906 120.707031 227.390625 C 121.785156 226.867188 122.613281 227.046875 124.382812 228.191406 C 126.570312 229.605469 127.089844 229.804688 128.628906 229.808594 C 130.171875 229.8125 131.5 229.402344 133.988281 228.148438 C 135.503906 227.386719 137.230469 226.816406 138.023438 226.816406 C 140.449219 226.820312 142.175781 228.808594 142.179688 231.59375 C 142.183594 233.617188 141.613281 234.925781 140.027344 236.507812 C 138.738281 237.796875 137.621094 238.402344 135.933594 238.722656 L 135.3125 238.839844 Z M 135.300781 237.738281 " transform="matrix(1,0,0,1,286,8)"/>
<path style="fill-rule:nonzero;fill:rgb(47.0588%,26.6667%,12.9412%);fill-opacity:1;stroke-width:1.805433;stroke-linecap:butt;stroke-linejoin:miter;stroke:rgb(47.0588%,26.6667%,12.9412%);stroke-opacity:1;stroke-miterlimit:4;" d="M 126.980469 227.710938 C 126.980469 227.507812 128.828125 224.726562 129.117188 224.496094 C 129.578125 224.125 131.496094 224.199219 132.421875 224.621094 C 133.132812 224.945312 134.484375 226.273438 134.484375 226.648438 C 134.484375 226.722656 133.984375 227.015625 133.371094 227.292969 C 132.355469 227.757812 132.039062 227.800781 129.621094 227.800781 C 128.167969 227.800781 126.980469 227.761719 126.980469 227.710938 Z M 126.980469 227.710938 " transform="matrix(1,0,0,1,286,8)"/>
<path style="fill-rule:nonzero;fill:rgb(66.6667%,0%,0%);fill-opacity:1;stroke-width:0.319159;stroke-linecap:butt;stroke-linejoin:miter;stroke:rgb(66.6667%,0%,0%);stroke-opacity:1;stroke-miterlimit:4;" d="M 128.148438 228.96875 C 127.695312 228.921875 126.949219 228.734375 126.675781 228.582031 C 126.589844 228.53125 126.613281 228.527344 127.019531 228.546875 C 127.257812 228.554688 128 228.59375 128.496094 228.601562 C 128.996094 228.613281 129.65625 228.632812 129.964844 228.644531 L 130.773438 228.648438 L 130.3125 228.730469 C 129.984375 228.789062 129.441406 228.929688 129.054688 228.96875 C 128.664062 229.007812 128.546875 229.007812 128.148438 228.96875 Z M 128.148438 228.96875 " transform="matrix(1,0,0,1,286,8)"/>
<path style="fill:none;stroke-width:1.42983;stroke-linecap:butt;stroke-linejoin:miter;stroke:rgb(0%,0%,0%);stroke-opacity:1;stroke-miterlimit:4;" d="M 125.839844 228.492188 L 128.625 224.109375 C 129.605469 223.648438 130.746094 223.542969 131.792969 223.808594 C 132.839844 224.078125 133.789062 224.71875 134.429688 225.59375 C 134.726562 226 134.960938 226.460938 135.113281 226.941406 " transform="matrix(1,0,0,1,286,8)"/>
<path style="fill-rule:nonzero;fill:rgb(66.6667%,0%,0%);fill-opacity:1;stroke-width:1.251101;stroke-linecap:butt;stroke-linejoin:miter;stroke:rgb(0%,0%,0%);stroke-opacity:1;stroke-miterlimit:4;" d="M 126.164062 228.183594 L 132.320312 228.339844 " transform="matrix(1,0,0,1,286,8)"/>
<path style="fill:none;stroke-width:1.42983;stroke-linecap:butt;stroke-linejoin:miter;stroke:rgb(0%,0%,0%);stroke-opacity:1;stroke-miterlimit:4;" d="M 134.753906 239.316406 C 136.5625 239.335938 138.371094 238.714844 139.789062 237.589844 C 141.203125 236.460938 142.214844 234.839844 142.601562 233.074219 C 142.878906 231.824219 142.839844 230.488281 142.363281 229.300781 C 141.886719 228.113281 140.945312 227.089844 139.746094 226.640625 C 138.722656 226.253906 137.570312 226.296875 136.507812 226.570312 C 135.445312 226.84375 134.453125 227.332031 133.472656 227.820312 C 132.492188 228.3125 131.507812 228.816406 130.453125 229.121094 C 129.398438 229.425781 128.257812 229.523438 127.207031 229.203125 C 126.121094 228.867188 125.21875 228.117188 124.261719 227.5 C 123.785156 227.191406 123.28125 226.914062 122.738281 226.738281 C 122.199219 226.566406 121.613281 226.503906 121.054688 226.628906 C 120.390625 226.777344 119.796875 227.195312 119.382812 227.738281 C 118.964844 228.277344 118.71875 228.9375 118.605469 229.613281 C 118.390625 230.929688 118.699219 232.328125 119.453125 233.429688 C 120.207031 234.535156 121.398438 235.328125 122.703125 235.605469 C 123.238281 234.292969 124.226562 233.167969 125.460938 232.472656 C 126.695312 231.777344 128.167969 231.511719 129.566406 231.738281 C 131.257812 232.007812 132.824219 232.996094 133.789062 234.410156 C 134.757812 235.824219 135.113281 237.640625 134.753906 239.316406 " transform="matrix(1,0,0,1,286,8)"/>
<path style="fill-rule:nonzero;fill:rgb(66.6667%,0%,0%);fill-opacity:1;stroke-width:0.466446;stroke-linecap:butt;stroke-linejoin:miter;stroke:rgb(0%,0%,0%);stroke-opacity:1;stroke-miterlimit:4;" d="M 117.710938 249.082031 C 121.9375 244.851562 135.652344 248.300781 135.652344 248.300781 C 131.457031 252.851562 128.53125 258.667969 123.066406 261.949219 L 117.710938 255.480469 C 117.710938 255.480469 116.015625 250.773438 117.710938 249.082031 Z M 117.710938 249.082031 " transform="matrix(1,0,0,1,286,8)"/>
<path style="fill:none;stroke-width:0.868414;stroke-linecap:square;stroke-linejoin:miter;stroke:rgb(100%,100%,100%);stroke-opacity:1;stroke-miterlimit:4;" d="M 126.84375 255.164062 L 127.011719 255.164062 " transform="matrix(1,0,0,1,286,8)"/>
<path style="fill:none;stroke-width:0.868414;stroke-linecap:square;stroke-linejoin:miter;stroke:rgb(100%,100%,100%);stroke-opacity:1;stroke-miterlimit:4;" d="M 121.804688 249.859375 L 121.972656 249.859375 " transform="matrix(1,0,0,1,286,8)"/>
<path style="fill:none;stroke-width:0.868414;stroke-linecap:square;stroke-linejoin:miter;stroke:rgb(100%,100%,100%);stroke-opacity:1;stroke-miterlimit:4;" d="M 126.84375 249.859375 L 127.011719 249.859375 " transform="matrix(1,0,0,1,286,8)"/>
<path style="fill:none;stroke-width:0.868414;stroke-linecap:square;stroke-linejoin:miter;stroke:rgb(100%,100%,100%);stroke-opacity:1;stroke-miterlimit:4;" d="M 131.886719 249.859375 L 132.054688 249.859375 " transform="matrix(1,0,0,1,286,8)"/>
<path style="fill:none;stroke-width:0.868414;stroke-linecap:square;stroke-linejoin:miter;stroke:rgb(100%,100%,100%);stroke-opacity:1;stroke-miterlimit:4;" d="M 129.367188 252.511719 L 129.53125 252.511719 " transform="matrix(1,0,0,1,286,8)"/>
<path style="fill:none;stroke-width:0.868414;stroke-linecap:square;stroke-linejoin:miter;stroke:rgb(100%,100%,100%);stroke-opacity:1;stroke-miterlimit:4;" d="M 124.324219 252.511719 L 124.492188 252.511719 " transform="matrix(1,0,0,1,286,8)"/>
<path style="fill:none;stroke-width:0.868414;stroke-linecap:square;stroke-linejoin:miter;stroke:rgb(100%,100%,100%);stroke-opacity:1;stroke-miterlimit:4;" d="M 119.285156 252.511719 L 119.453125 252.511719 " transform="matrix(1,0,0,1,286,8)"/>
<path style="fill:none;stroke-width:0.868414;stroke-linecap:square;stroke-linejoin:miter;stroke:rgb(100%,100%,100%);stroke-opacity:1;stroke-miterlimit:4;" d="M 121.804688 255.164062 L 121.972656 255.164062 " transform="matrix(1,0,0,1,286,8)"/>
<path style="fill:none;stroke-width:0.868414;stroke-linecap:square;stroke-linejoin:miter;stroke:rgb(100%,100%,100%);stroke-opacity:1;stroke-miterlimit:4;" d="M 124.324219 257.816406 L 124.492188 257.816406 " transform="matrix(1,0,0,1,286,8)"/>
<path style="fill-rule:nonzero;fill:url(#radial0);stroke-width:3;stroke-linecap:butt;stroke-linejoin:miter;stroke:rgb(20%,20%,20%);stroke-opacity:1;stroke-miterlimit:4;" d="M 190.56135 1.311065 C 137.589833 1.306203 84.91382 23.432468 47.501644 66.609297 C -20.908721 145.558482 -12.361753 265.019586 66.587431 333.429951 C 145.536615 401.840315 264.99772 393.293348 333.408084 314.344163 C 401.818449 235.394979 393.271481 115.933875 314.322297 47.52351 C 278.547425 16.522334 234.450647 1.320202 190.56135 1.311065 Z M 164.750329 24.935967 L 216.155854 24.937065 C 233.296532 24.937902 248.443294 39.4221 243.60932 55.863491 L 227.859838 109.430507 C 223.023347 125.86891 214.04546 145.606594 196.904782 145.605757 L 183.999893 145.607139 C 166.864718 145.606774 157.911696 125.86991 153.073255 109.429398 L 137.321732 55.863083 C 132.488795 39.423042 147.612167 24.938118 164.750329 24.935967 Z M 49.798037 136.416792 C 51.764729 136.435452 53.811808 136.713268 55.866629 137.321643 L 109.433645 153.071125 C 125.875036 157.905099 145.609732 166.885502 145.611882 184.023665 L 145.610277 196.93107 C 145.609911 214.066244 125.873048 223.019267 109.435523 227.855191 L 55.866692 243.603727 C 39.42618 248.442168 24.913735 233.31644 24.914101 216.181265 L 24.912682 164.772753 C 24.912806 149.777726 36.009809 136.309288 49.798037 136.416792 Z M 331.107971 136.41905 C 344.898063 136.310479 355.990246 149.776697 355.992639 164.774712 L 355.991541 216.180236 C 355.991175 233.315411 341.508862 248.440157 325.067472 243.606182 L 271.500456 227.8567 C 255.056548 223.019738 235.325 214.067327 235.32285 196.929164 L 235.324455 184.021759 C 235.324821 166.886585 255.058536 157.905571 271.501565 153.070118 L 325.064892 137.32111 C 327.121312 136.712609 329.138452 136.433415 331.107971 136.41905 Z M 184.001798 235.319712 L 196.906687 235.318329 C 214.047366 235.319167 223.025392 255.055398 227.858329 271.495439 L 243.609852 325.061754 C 248.445305 341.504782 233.297561 356.015343 216.156882 356.014506 L 164.74837 356.015924 C 147.613196 356.015558 132.48829 341.502737 137.324781 325.064334 L 153.074263 271.497318 C 157.911225 255.05341 166.863636 235.321862 184.001798 235.319712 Z M 184.001798 235.319712 " transform="matrix(0.764842,0.644218,-0.644218,0.764842,453.521033,-69.925906)"/>
<path style="fill-rule:nonzero;fill:rgb(60%,60%,60%);fill-opacity:1;stroke-width:1.8;stroke-linecap:square;stroke-linejoin:miter;stroke:rgb(50.1961%,50.1961%,50.1961%);stroke-opacity:1;stroke-miterlimit:4;" d="M 215.13929 190.471884 C 215.142009 204.105986 204.090824 215.160954 190.454206 215.160685 C 176.820576 215.1579 165.765607 204.106715 165.765876 190.470097 C 165.763157 176.835995 176.819375 165.787002 190.453477 165.784284 C 204.090095 165.784552 215.139559 176.835266 215.13929 190.471884 Z M 215.13929 190.471884 " transform="matrix(0.764842,0.644218,-0.644218,0.764842,453.521033,-69.925906)"/>
<path style="fill-rule:nonzero;fill:rgb(50.1961%,50.1961%,50.1961%);fill-opacity:1;stroke-width:1.8;stroke-linecap:square;stroke-linejoin:miter;stroke:rgb(40%,40%,40%);stroke-opacity:1;stroke-miterlimit:4;" d="M 188.309032 206.410828 C 188.306595 208.609004 186.52692 210.388903 184.328272 210.391969 C 182.130096 210.389531 180.347681 208.606869 180.347131 206.411209 C 180.347052 204.210045 182.129715 202.42763 184.328362 202.424564 C 186.526539 202.427002 188.308954 204.209664 188.309032 206.410828 Z M 188.309032 206.410828 " transform="matrix(0.764842,0.644218,-0.644218,0.764842,453.521033,-69.925906)"/>
<path style="fill-rule:nonzero;fill:rgb(50.1961%,50.1961%,50.1961%);fill-opacity:1;stroke-width:1.8;stroke-linecap:square;stroke-linejoin:miter;stroke:rgb(40%,40%,40%);stroke-opacity:1;stroke-miterlimit:4;" d="M 200.559721 206.408887 C 200.559799 208.610051 198.777137 210.392466 196.57896 210.390028 C 194.377796 210.390107 192.597898 208.610432 192.597819 206.409268 C 192.600257 204.211091 194.380403 202.425688 196.576063 202.425139 C 198.777227 202.42506 200.556654 204.210239 200.559721 206.408887 Z M 200.559721 206.408887 " transform="matrix(0.764842,0.644218,-0.644218,0.764842,453.521033,-69.925906)"/>
<path style="fill-rule:nonzero;fill:rgb(50.1961%,50.1961%,50.1961%);fill-opacity:1;stroke-width:1.8;stroke-linecap:square;stroke-linejoin:miter;stroke:rgb(40%,40%,40%);stroke-opacity:1;stroke-miterlimit:4;" d="M 188.309864 174.535701 C 188.309785 172.334537 186.52737 170.551875 184.329194 170.549437 C 182.128029 170.549515 180.347884 172.334918 180.347962 174.536082 C 180.345524 176.734259 182.127939 178.516921 184.329104 178.516843 C 186.527751 178.513776 188.307426 176.733878 188.309864 174.535701 Z M 188.309864 174.535701 " transform="matrix(0.764842,0.644218,-0.644218,0.764842,453.521033,-69.925906)"/>
<path style="fill:none;stroke-width:1.8;stroke-linecap:square;stroke-linejoin:miter;stroke:rgb(40%,40%,40%);stroke-opacity:1;stroke-miterlimit:4;" d="M 200.557564 174.536276 C 200.557486 172.335112 198.778058 170.549933 196.576894 170.550012 C 194.381234 170.550562 192.595584 172.335493 192.59865 174.534141 C 192.598729 176.735305 194.378627 178.51498 196.579792 178.514901 C 198.777968 178.517339 200.56063 176.734924 200.557564 174.536276 Z M 200.557564 174.536276 " transform="matrix(0.764842,0.644218,-0.644218,0.764842,453.521033,-69.925906)"/>
</g>
</svg>
